<svg xmlns="http://www.w3.org/2000/svg" id="Calque_1" data-name="Calque 1" viewBox="0 0 210.3 136.42">
  <defs fill="#000000">
    <style>
      .cls-1 {
        fill: #000000;
        stroke-width: 0px;
      }
    </style>
  </defs>
  <path class="cls-1" d="M125.26,47.85H0v-16.37h125.26v16.37ZM49.53,0v111.24c0,1.96.07,3.46.21,4.51.14,1.05.52,1.89,1.15,2.52.63.63,1.47,1.02,2.52,1.15,1.05.14,2.41.21,4.09.21h13.3v16.79h-8.26c-10.21,0-17.73-2.59-22.56-7.77-4.83-5.18-7.24-13.43-7.24-24.77V0h16.79Z" fill="#000000"/>
  <path class="cls-1" d="M153,128.87V56.67c0-1.96-.07-3.46-.21-4.51-.15-1.05-.5-1.89-1.05-2.52-.56-.63-1.33-1.01-2.31-1.15-.98-.14-2.38-.21-4.2-.21h-13.57v-16.79h7.91c10.35,0,18.02,2.62,22.98,7.87,4.97,5.25,7.45,13.47,7.45,24.66v64.85h-17ZM77.31,120.05h132.99v16.37H77.31v-16.37ZM150.69,0h20.57v20.36h-20.57V0Z" fill="#000000"/>
</svg>