<svg class="animated" id="freepik_stories-mobile-development" xmlns="http://www.w3.org/2000/svg" viewBox="0 0 500 500" version="1.1" xmlns:xlink="http://www.w3.org/1999/xlink" xmlns:svgjs="http://svgjs.com/svgjs"><style>svg#freepik_stories-mobile-development:not(.animated) .animable {opacity: 0;}svg#freepik_stories-mobile-development.animated #freepik--Video--inject-110 {animation: 6s Infinite  linear floating;animation-delay: 0s;}svg#freepik_stories-mobile-development.animated #freepik--Icon--inject-110 {animation: 6s Infinite  linear floating;animation-delay: 0s;}svg#freepik_stories-mobile-development.animated #freepik--Map--inject-110 {animation: 6s Infinite  linear floating;animation-delay: 0s;}            @keyframes floating {                0% {                    opacity: 1;                    transform: translateY(0px);                }                50% {                    transform: translateY(-10px);                }                100% {                    opacity: 1;                    transform: translateY(0px);                }            }        </style><g id="freepik--background-complete--inject-110" class="animable" style="transform-origin: 248.32px 245.965px;"><polygon points="403.38 55.48 473.55 55.48 473.55 157.22 403.85 157.22 403.38 55.48" style="fill: rgb(224, 224, 224); transform-origin: 438.465px 106.35px;" id="elbdnfiqbncel" class="animable"></polygon><g id="ely1bg0lnq7d"><rect x="398.11" y="55.96" width="69.53" height="100.79" style="fill: rgb(255, 255, 255); transform-origin: 432.875px 106.355px; transform: rotate(180deg);" class="animable"></rect></g><path d="M468.12,55.48V157.22H397.63V55.48Zm-.95,100.79V56.44H398.59v99.83Z" style="fill: rgb(224, 224, 224); transform-origin: 432.875px 106.35px;" id="eln5hty5ibog" class="animable"></path><rect x="406.75" y="66.87" width="52.26" height="78.96" style="fill: rgb(255, 255, 255); transform-origin: 432.88px 106.35px;" id="elg0fjm8cczh7" class="animable"></rect><path d="M406.75,66.87s0,.14,0,.39,0,.64,0,1.13c0,1,0,2.45,0,4.33,0,3.79,0,9.31.07,16.27,0,13.93.06,33.63.11,56.84l-.23-.23,52.25,0h0l-.25.25c0-29.78,0-57.25.05-79l.2.2L421,67l-10.52,0-2.76,0c-.63,0-1,0-1,0l.92,0,2.72,0,10.47,0,38.15-.1h.19v.2c0,21.71,0,49.18.05,79v.25H459l-52.25,0h-.23v-.23c.05-23.27.09-43,.11-57,0-6.94.05-12.44.07-16.22,0-1.86,0-3.3,0-4.29,0-.47,0-.83,0-1.09S406.75,66.87,406.75,66.87Z" style="fill: rgb(224, 224, 224); transform-origin: 432.87px 106.6px;" id="eleur27j8numv" class="animable"></path><path d="M397.92,156.75A7.53,7.53,0,0,1,399,155c.74-1,1.8-2.43,3-3.95s2.36-2.85,3.22-3.79a7.77,7.77,0,0,1,1.48-1.44,68.93,68.93,0,0,1-4.31,5.54A57.1,57.1,0,0,1,397.92,156.75Z" style="fill: rgb(224, 224, 224); transform-origin: 402.31px 151.285px;" id="el9t8smc47fqb" class="animable"></path><path d="M398.11,56a48.53,48.53,0,0,1,4.52,5.3,50.24,50.24,0,0,1,4.12,5.61,47.86,47.86,0,0,1-4.51-5.3A48.62,48.62,0,0,1,398.11,56Z" style="fill: rgb(224, 224, 224); transform-origin: 402.43px 61.455px;" id="elvm87c8k89fn" class="animable"></path><path d="M467.66,56l-9.11,11.23" style="fill: rgb(255, 255, 255); transform-origin: 463.105px 61.615px;" id="elay54plp1cyb" class="animable"></path><path d="M458.55,67.27a52.09,52.09,0,0,1,4.36-5.77A51.25,51.25,0,0,1,467.66,56a55.33,55.33,0,0,1-4.36,5.77A52.72,52.72,0,0,1,458.55,67.27Z" style="fill: rgb(224, 224, 224); transform-origin: 463.105px 61.635px;" id="el0q60doxlc2fq" class="animable"></path><path d="M467.65,156.75a48.7,48.7,0,0,1-4.47-5.25,47.76,47.76,0,0,1-4.08-5.56,47.52,47.52,0,0,1,4.47,5.25A48.21,48.21,0,0,1,467.65,156.75Z" style="fill: rgb(224, 224, 224); transform-origin: 463.375px 151.345px;" id="eljhpn9j808r8" class="animable"></path><path d="M436.25,107.5h-9.2L426,110a5.59,5.59,0,0,0-.54,2.09,1.72,1.72,0,0,0,.88,1.61,7.3,7.3,0,0,0,2.56.46v.71H420.2v-.71a3.83,3.83,0,0,0,2.3-1.16,15.31,15.31,0,0,0,2.23-3.92L434,88.34h.36l9.39,21.35a13,13,0,0,0,2.21,3.82,3,3,0,0,0,1.84.69v.71H435.25v-.71h.52a4,4,0,0,0,2.13-.42,1,1,0,0,0,.42-.88,2.56,2.56,0,0,0-.11-.71c0-.12-.22-.6-.58-1.44Zm-.65-1.42-3.88-9-4,9Z" style="fill: rgb(224, 224, 224); transform-origin: 434px 101.625px;" id="el5rm1ei4tr9p" class="animable"></path><rect x="29.08" y="89.34" width="32.06" height="68.62" style="fill: rgb(245, 245, 245); transform-origin: 45.11px 123.65px;" id="el1yfvauxadxn" class="animable"></rect><rect x="62.47" y="162.76" width="39.39" height="66.3" style="fill: rgb(245, 245, 245); transform-origin: 82.165px 195.91px;" id="elf9ifhrxu90w" class="animable"></rect><polygon points="106.65 88.15 144.06 88.15 144.06 27.28 145.39 27.28 145.39 88.15 180.01 88.15 180.01 25.93 106.65 25.93 106.65 88.15" style="fill: rgb(245, 245, 245); transform-origin: 143.33px 57.04px;" id="elta98kppwl09" class="animable"></polygon><rect x="29.08" y="162.76" width="32.06" height="66.3" style="fill: rgb(245, 245, 245); transform-origin: 45.11px 195.91px;" id="el7dh3k4nqkbt" class="animable"></rect><rect x="145.39" y="162.76" width="34.62" height="66.3" style="fill: rgb(245, 245, 245); transform-origin: 162.7px 195.91px;" id="elk5otueznkf" class="animable"></rect><rect x="62.47" y="89.34" width="39.39" height="68.62" style="fill: rgb(245, 245, 245); transform-origin: 82.165px 123.65px;" id="el57ujb1gro3j" class="animable"></rect><rect x="145.39" y="89.34" width="34.62" height="68.62" style="fill: rgb(245, 245, 245); transform-origin: 162.7px 123.65px;" id="el0qtc4s75zjc9" class="animable"></rect><rect x="29.08" y="230.25" width="32.06" height="59.75" style="fill: rgb(245, 245, 245); transform-origin: 45.11px 260.125px;" id="elkonxfr4339" class="animable"></rect><polygon points="61.13 88.15 61.13 27.28 62.47 27.28 62.47 88.15 101.86 88.15 101.86 25.93 29.08 25.93 29.08 88.15 61.13 88.15" style="fill: rgb(245, 245, 245); transform-origin: 65.47px 57.04px;" id="ely9lu2sayp" class="animable"></polygon><rect x="62.47" y="230.25" width="39.39" height="59.75" style="fill: rgb(245, 245, 245); transform-origin: 82.165px 260.125px;" id="elvhuzcg0qs07" class="animable"></rect><rect x="145.39" y="230.25" width="34.62" height="59.75" style="fill: rgb(245, 245, 245); transform-origin: 162.7px 260.125px;" id="elh30d1lbgu9" class="animable"></rect><rect x="106.65" y="89.34" width="37.41" height="68.62" style="fill: rgb(245, 245, 245); transform-origin: 125.355px 123.65px;" id="el38k0ifc5csq" class="animable"></rect><rect x="106.65" y="230.25" width="37.41" height="59.75" style="fill: rgb(245, 245, 245); transform-origin: 125.355px 260.125px;" id="elrwcdt52i3jm" class="animable"></rect><rect x="106.65" y="162.76" width="37.41" height="66.3" style="fill: rgb(245, 245, 245); transform-origin: 125.355px 195.91px;" id="eljt79dorhqxq" class="animable"></rect><rect x="23.09" y="310.56" width="106.94" height="28.34" rx="13.94" style="fill: rgb(224, 224, 224); transform-origin: 76.56px 324.73px;" id="el86rqrggkshs" class="animable"></rect><path d="M46.21,323.39c-.06,0,0-.62-.32-1.68A6.91,6.91,0,0,0,43.34,318a6.72,6.72,0,0,0-2.86-1.24,6.89,6.89,0,0,0-3.54.31,6.69,6.69,0,0,0-3.12,2.36,6.71,6.71,0,0,0,0,7.94,6.69,6.69,0,0,0,3.12,2.36,6.89,6.89,0,0,0,3.54.31,6.72,6.72,0,0,0,2.86-1.24,6.94,6.94,0,0,0,2.55-3.72c.29-1.06.26-1.68.32-1.68a1.29,1.29,0,0,1,0,.45,5.48,5.48,0,0,1-.15,1.28,7,7,0,0,1-5.53,5.33,7.19,7.19,0,1,1,0-14.12,7,7,0,0,1,5.53,5.33,5.48,5.48,0,0,1,.15,1.28A1.29,1.29,0,0,1,46.21,323.39Z" style="fill: rgb(255, 255, 255); transform-origin: 39.1043px 323.4px;" id="elvpywx1nqo1a" class="animable"></path><path d="M51.43,333.06a18.17,18.17,0,0,1-3.66-2.29,18.31,18.31,0,0,1-3.36-2.72,17.57,17.57,0,0,1,3.66,2.29A18.31,18.31,0,0,1,51.43,333.06Z" style="fill: rgb(255, 255, 255); transform-origin: 47.92px 330.555px;" id="elwma9qedlto" class="animable"></path><path d="M269.05,62.48A23.24,23.24,0,0,1,274.71,60l1.16-5.6,9.47-.17,1.36,5.56a23.25,23.25,0,0,1,5.74,2.26l4.78-3.14L304,65.51l-3,4.89a23.24,23.24,0,0,1,2.46,5.66l5.6,1.16.16,9.47-5.55,1.36a23.25,23.25,0,0,1-2.26,5.74l3.13,4.78L298,105.38l-4.89-3a23.24,23.24,0,0,1-5.66,2.46l-1.17,5.6-9.46.16-1.36-5.55a23.09,23.09,0,0,1-5.74-2.26L265,106l-6.81-6.57,3-4.89a23.24,23.24,0,0,1-2.46-5.66l-5.6-1.16-.17-9.47,5.56-1.36a23.09,23.09,0,0,1,2.26-5.74l-3.14-4.78,6.58-6.81,4.89,3Zm5,12.61a10.15,10.15,0,1,0,14.36-.25A10.14,10.14,0,0,0,274.09,75.09Z" style="fill: rgb(224, 224, 224); transform-origin: 281.09px 82.415px;" id="el2fax15cdnxb" class="animable"></path><path d="M274.09,75.09A7.62,7.62,0,0,1,276,73.43a10.14,10.14,0,0,1,6.63-1.57,10.3,10.3,0,0,1,8.14,5.7,9.52,9.52,0,0,1,.92,2.85,9.65,9.65,0,0,1,.06,3.13,10.38,10.38,0,0,1-8.57,8.88,9.69,9.69,0,0,1-3.13,0,10,10,0,0,1-2.88-.82,10.38,10.38,0,0,1-4.22-3.5A10.25,10.25,0,0,1,272.5,77a7.5,7.5,0,0,1,1.59-1.94,24.56,24.56,0,0,0-1.39,2.06,10,10,0,0,0-1.12,6.5,9.87,9.87,0,0,0,1.74,4.22,10,10,0,0,0,4.05,3.29,9.28,9.28,0,0,0,2.74.76,9.51,9.51,0,0,0,3-.06A10,10,0,0,0,288.49,89a9.87,9.87,0,0,0,2.68-5.53,9.71,9.71,0,0,0,0-2.95,9.44,9.44,0,0,0-.86-2.71,10,10,0,0,0-3.43-3.94,9.86,9.86,0,0,0-4.28-1.59,10.18,10.18,0,0,0-6.46,1.35C274.74,74.45,274.14,75.14,274.09,75.09Z" style="fill: rgb(224, 224, 224); transform-origin: 281.466px 82.1729px;" id="elfg2i56ezw98" class="animable"></path><path d="M269.05,62.48a2,2,0,0,1-.32-.17l-.93-.54-3.69-2.17.11,0-6.53,6.85,0-.19c1,1.45,2,3.06,3.15,4.77l.06.09-.05.09a22.94,22.94,0,0,0-2.22,5.71l0,.11-.11,0L253,78.41l.16-.2c.06,3,.12,6.14.19,9.46l-.18-.22,5.6,1.16.14,0,0,.15a23.23,23.23,0,0,0,2.45,5.59l.07.13-.07.13-3,4.89,0-.32,6.81,6.57-.33,0,4.78-3.14.14-.09.14.08a22.94,22.94,0,0,0,5.68,2.22l.16,0,0,.17c.43,1.74.9,3.64,1.37,5.56l-.28-.22,9.46-.17-.28.23,1.17-5.6,0-.17.17-.05a22.57,22.57,0,0,0,5.58-2.43h0l.15-.09.15.09,4.89,3-.36.05,6.58-6.81,0,.36L301.24,94l-.09-.15.08-.15A22.91,22.91,0,0,0,303.46,88l.05-.16.16,0,5.56-1.36-.21.27q-.09-4.84-.16-9.46l.21.26-5.6-1.18-.15,0,0-.15a23,23,0,0,0-2.43-5.6l-.08-.13.08-.13,3-4.89,0,.3-6.79-6.58.28,0-4.79,3.12-.11.07-.11-.06A23.05,23.05,0,0,0,286.65,60l-.11,0,0-.11c-.48-2-.92-3.85-1.34-5.56l.17.13-9.46.12.12-.1L274.8,60v.06h-.06a23.22,23.22,0,0,0-4.32,1.67l-1,.53a2.62,2.62,0,0,1-.34.17l.31-.21c.22-.14.55-.34,1-.58a22.55,22.55,0,0,1,4.32-1.76l-.06.07c.3-1.53.67-3.37,1.13-5.61l0-.1h.1l9.46-.21h.14l0,.13,1.38,5.55-.14-.14a23.29,23.29,0,0,1,5.8,2.27h-.21l4.77-3.14.15-.1.13.12,6.82,6.56.14.14-.1.16-3,4.9v-.26a23.51,23.51,0,0,1,2.5,5.72l-.2-.19,5.6,1.16.21,0v.22q.08,4.62.17,9.46v.22l-.22.06-5.55,1.36.2-.2a23.4,23.4,0,0,1-2.28,5.81v-.3l3.13,4.79.13.19-.16.16-6.57,6.82-.16.16-.2-.12-4.89-3h.3a23.72,23.72,0,0,1-5.73,2.49l.21-.22c-.41,1.92-.8,3.83-1.17,5.6l-.05.22h-.23l-9.46.16h-.23l-.06-.22c-.46-1.92-.93-3.81-1.35-5.55l.2.2a23.63,23.63,0,0,1-5.81-2.29h.29l-4.79,3.13-.18.12-.15-.15L258,99.58l-.15-.15.1-.17c1-1.71,2.05-3.38,3-4.89v.26a23.4,23.4,0,0,1-2.48-5.72l.18.17L253,87.9l-.18,0v-.18c-.05-3.32-.1-6.48-.14-9.46v-.17l.16,0,5.56-1.35-.13.14A23.09,23.09,0,0,1,260.57,71v.17l-3.12-4.79-.06-.1.08-.09,6.61-6.77.05-.05.07,0,3.6,2.24.92.59Z" style="fill: rgb(224, 224, 224); transform-origin: 281.09px 82.41px;" id="eljzcm31q9sy" class="animable"></path><path d="M317.24,44.84a9,9,0,0,1,2.28-1l.47-2.26,3.81-.06.55,2.23a9.49,9.49,0,0,1,2.31.91l1.93-1.26,2.74,2.65-1.2,2a8.94,8.94,0,0,1,1,2.27l2.26.47.07,3.81-2.24.55a9.34,9.34,0,0,1-.91,2.31l1.26,1.93-2.65,2.74-2-1.19a10,10,0,0,1-2.28,1l-.47,2.25-3.81.07L319.84,62a9,9,0,0,1-2.31-.91l-1.93,1.27-2.74-2.65,1.19-2a9.78,9.78,0,0,1-1-2.28L310.81,55l-.07-3.81,2.24-.55a9.65,9.65,0,0,1,.91-2.31l-1.26-1.92,2.64-2.75,2,1.2Zm2,5.07a4.09,4.09,0,1,0,5.78-.1A4.09,4.09,0,0,0,319.27,49.91Z" style="fill: rgb(245, 245, 245); transform-origin: 322.1px 52.89px;" id="ela1zt9lbfjgv" class="animable"></path><path d="M319.27,49.91a3.19,3.19,0,0,1,.76-.66,4,4,0,0,1,2.67-.63,4,4,0,0,1,1.81.64A4.22,4.22,0,0,1,326,50.91a4,4,0,0,1,.37,1.15,3.79,3.79,0,0,1,0,1.26,4.15,4.15,0,0,1-1.13,2.35,4.21,4.21,0,0,1-2.32,1.22,3.81,3.81,0,0,1-1.26,0,3.86,3.86,0,0,1-1.16-.33,4.16,4.16,0,0,1-1.7-1.41,4.09,4.09,0,0,1-.7-1.78,4.05,4.05,0,0,1,.53-2.69,3.3,3.3,0,0,1,.64-.79s-.24.27-.56.83a4.1,4.1,0,0,0-.45,2.62,4,4,0,0,0,.7,1.7,4,4,0,0,0,1.63,1.32,3.75,3.75,0,0,0,1.1.31,4,4,0,0,0,3.38-1.18,4,4,0,0,0,1.08-2.22,3.64,3.64,0,0,0,0-1.19,3.85,3.85,0,0,0-.34-1.09,4.14,4.14,0,0,0-1.38-1.59,4.08,4.08,0,0,0-1.73-.64,4.14,4.14,0,0,0-2.6.54C319.53,49.66,319.29,49.94,319.27,49.91Z" style="fill: rgb(245, 245, 245); transform-origin: 322.238px 52.7672px;" id="elijppviefm" class="animable"></path><path d="M317.24,44.84l-.13-.07-.37-.22-1.49-.87h.05l-2.63,2.76v-.08c.38.59.81,1.23,1.27,1.92l0,0,0,0a9,9,0,0,0-.9,2.29v0h0l-2.24.55.06-.08c0,1.2.05,2.47.08,3.81l-.07-.09,2.25.47h.06l0,.06a9.32,9.32,0,0,0,1,2.25l0,0,0,.05-1.19,2,0-.13,2.75,2.65-.14,0L317.47,61l0,0,.06,0a9.33,9.33,0,0,0,2.29.89l.06,0,0,.07c.17.7.36,1.46.55,2.23l-.11-.08,3.81-.07-.12.09c.15-.71.31-1.48.47-2.26l0-.07h.06a9.26,9.26,0,0,0,2.25-1h0l.07,0,.06,0L329,62l-.14,0,2.65-2.74,0,.14c-.42-.64-.84-1.29-1.26-1.92l0-.06,0-.06a9.84,9.84,0,0,0,.9-2.28V55l.07,0,2.24-.54-.09.11c0-1.3,0-2.58-.06-3.81l.09.1-2.26-.47-.06,0,0-.06a9.62,9.62,0,0,0-1-2.25l0,0,0-.06c.41-.67.81-1.32,1.19-2l0,.12c-1-.94-1.87-1.82-2.74-2.65h.11l-1.92,1.25,0,0,0,0a9.42,9.42,0,0,0-2.29-.91h-.05v0c-.19-.81-.37-1.54-.54-2.24l.07.06-3.81,0,.05,0-.48,2.26v0h0a10.11,10.11,0,0,0-1.74.67l-.41.22-.14.07.13-.09.4-.23a9.25,9.25,0,0,1,1.74-.71l0,0c.13-.62.28-1.36.46-2.26v0h0l3.81-.08h.05l0,0,.55,2.23-.05-.05a9.67,9.67,0,0,1,2.33.91h-.09l1.93-1.26.06,0,0,.05L331.39,46l.06,0,0,.07-1.19,2V48a9.18,9.18,0,0,1,1,2.31l-.08-.08,2.26.47.08,0v.08c0,1.24,0,2.51.07,3.81v.09l-.09,0-2.23.55.08-.08a9.57,9.57,0,0,1-.92,2.34v-.12l1.27,1.93,0,.07-.07.07L329,62.19l-.07.07-.08,0-2-1.19H327a9.28,9.28,0,0,1-2.3,1l.08-.09c-.16.78-.32,1.54-.47,2.26l0,.09h-.09l-3.81.06h-.09l0-.09L319.73,62l.08.08a9.36,9.36,0,0,1-2.34-.92h.12l-1.93,1.26-.07,0-.06-.06-2.74-2.65-.06-.05,0-.08,1.2-2v.1a9.18,9.18,0,0,1-1-2.3l.07.07-2.25-.48h-.07V55c0-1.33,0-2.61-.06-3.81v-.06l.06,0,2.24-.54-.06.06a9.37,9.37,0,0,1,.93-2.33v.07l-1.25-1.93,0,0,0,0,2.67-2.72,0,0h0l1.45.91.38.23Z" style="fill: rgb(245, 245, 245); transform-origin: 322.105px 52.945px;" id="el3lhngb6fnuu" class="animable"></path><path d="M343.14,136.88v0l-1.73-7.07a29.82,29.82,0,0,1-7.3-2.87l-6.11,4h0l-8.7-8.41h0l3.78-6.23a29.54,29.54,0,0,1-3.13-7.2l-7.15-1.48v0l-.21-12.1h0l7.07-1.74a30,30,0,0,1,2.87-7.3l-4-6.11h0l8.4-8.7h0l6.23,3.77a29.9,29.9,0,0,1,7.2-3.12l1.49-7.15h0L354,64.89v0L355.73,72a29.43,29.43,0,0,1,7.3,2.87l6.11-4h0l8.7,8.4v0l-3.77,6.22a29.93,29.93,0,0,1,3.13,7.2l7.15,1.49v0l.21,12.09h0l-7.07,1.73a29.92,29.92,0,0,1-2.88,7.31l4,6.1,0,0-8.4,8.7h0l-6.22-3.78a29.54,29.54,0,0,1-7.2,3.13l-1.49,7.15h0Zm-9.05-10h0a29.41,29.41,0,0,0,7.32,2.87h0l1.74,7.07,12-.21,1.49-7.14h0a29.71,29.71,0,0,0,7.22-3.14h0l6.22,3.77,8.36-8.65-4-6.1v0a29.37,29.37,0,0,0,2.88-7.31v0h0l7.07-1.74-.21-12-7.14-1.48v0A29.44,29.44,0,0,0,374,85.53v0h0l3.77-6.22-8.66-8.36-6.1,4h0A29.44,29.44,0,0,0,355.7,72h0v0L354,64.94l-12,.21-1.49,7.15h0a29.9,29.9,0,0,0-7.22,3.13h0L327,71.66l-8.36,8.66,4,6.1h0a29.59,29.59,0,0,0-2.88,7.32h0l-7.07,1.73.21,12L320,109h0a29.14,29.14,0,0,0,3.13,7.22h0v0l-3.77,6.22,8.66,8.36Zm14.85-13.39a13,13,0,0,1-.22-25.95H349a13,13,0,0,1,.22,26Zm-9.31-22h0a12.94,12.94,0,0,0,.33,18.28,12.79,12.79,0,0,0,9,3.63h.23A12.93,12.93,0,0,0,349,87.56h-.23a12.87,12.87,0,0,0-9.08,3.94Z" style="fill: rgb(224, 224, 224); transform-origin: 348.575px 100.885px;" id="el56yx1qgo4j" class="animable"></path><path d="M339.63,91.5A9.53,9.53,0,0,1,342,89.38a12.91,12.91,0,0,1,8.45-2,13.15,13.15,0,0,1,10.39,7.28,13.2,13.2,0,0,1,1.25,7.62,13.23,13.23,0,0,1-10.94,11.33,13.37,13.37,0,0,1-7.66-1,13.25,13.25,0,0,1-5.39-4.46A13.07,13.07,0,0,1,337.6,94a9.8,9.8,0,0,1,2-2.48,30.76,30.76,0,0,0-1.78,2.62,12.94,12.94,0,0,0-1.44,8.3,12.68,12.68,0,0,0,7.4,9.58,12.69,12.69,0,0,0,7.26.89,12.56,12.56,0,0,0,10.34-10.71,11.9,11.9,0,0,0-.05-3.77,11.71,11.71,0,0,0-1.1-3.45,12.69,12.69,0,0,0-9.83-7.06,13,13,0,0,0-8.24,1.72A28.38,28.38,0,0,0,339.63,91.5Z" style="fill: rgb(235, 235, 235); transform-origin: 348.984px 100.544px;" id="el163l6h20cmy" class="animable"></path><path d="M333.19,75.41a3.08,3.08,0,0,1-.4-.21l-1.2-.69-4.7-2.78.15,0-8.34,8.74,0-.24,4,6.09.07.11-.07.12a29.51,29.51,0,0,0-2.83,7.27l0,.15-.14,0-7.08,1.76.2-.26q.11,5.7.24,12.07l-.23-.28,7.14,1.47.19,0,.05.18a29.51,29.51,0,0,0,3.11,7.14l.1.16-.1.17-3.77,6.24,0-.41,8.69,8.38-.43,0,6.1-4,.18-.11.19.1a29.14,29.14,0,0,0,7.24,2.84l.21.05,0,.21c.54,2.22,1.14,4.65,1.74,7.09l-.36-.28,12.07-.21-.35.29,1.49-7.14,0-.22.22-.07a29.34,29.34,0,0,0,7.12-3.09h0l.19-.12.19.12,6.24,3.78-.46.06,8.39-8.69,0,.46-4-6.1-.12-.19.11-.19A29.57,29.57,0,0,0,377.1,108l0-.22.21,0,7.09-1.73-.27.35q-.1-6.18-.2-12.07l.27.33-7.14-1.5-.2,0-.05-.2a29.83,29.83,0,0,0-3.09-7.14l-.11-.17.11-.16,3.79-6.23.05.38-8.67-8.41.35,0-6.11,4-.14.09-.14-.08a29.59,29.59,0,0,0-7.25-2.88l-.14,0,0-.15L353.76,65l.21.17-12.07.16.16-.14c-.61,2.85-1.11,5.19-1.53,7.14l0,.07-.07,0a31.16,31.16,0,0,0-5.52,2.12l-1.3.68a3,3,0,0,1-.43.22l.4-.27c.28-.17.7-.43,1.28-.73a28.22,28.22,0,0,1,5.51-2.25l-.09.09c.4-2,.87-4.3,1.44-7.15l0-.13h.13L354,64.7h.17l0,.18c.55,2.19,1.12,4.5,1.76,7.08l-.17-.18a29.5,29.5,0,0,1,7.39,2.89h-.27l6.09-4,.19-.12.16.15c2.75,2.65,5.64,5.43,8.71,8.37l.17.17-.12.22c-1.23,2-2.48,4.1-3.78,6.24v-.33a30,30,0,0,1,3.19,7.29l-.26-.23,7.15,1.48.27,0v.28q.12,5.88.23,12.07v.28l-.27.07-7.09,1.74.26-.26a29.66,29.66,0,0,1-2.91,7.41v-.37l4,6.1.16.24-.2.21q-4.14,4.29-8.39,8.69l-.2.22-.26-.16-6.23-3.78h.37a30.27,30.27,0,0,1-7.3,3.17l.26-.28-1.49,7.14-.06.29h-.29l-12.08.2h-.29l-.07-.29c-.59-2.44-1.19-4.86-1.73-7.09l.26.27a30.14,30.14,0,0,1-7.41-2.92l.37,0-6.11,4-.23.15-.2-.19-8.67-8.4-.19-.19.13-.22,3.79-6.23v.33a29.69,29.69,0,0,1-3.15-7.3l.23.21-7.14-1.5-.23,0v-.23q-.09-6.36-.18-12.07v-.22l.2,0,7.09-1.71-.17.18a30.15,30.15,0,0,1,2.92-7.38v.23l-4-6.12-.08-.13.1-.1,8.44-8.64.06-.07.08,0,4.6,2.86,1.18.75A3.22,3.22,0,0,1,333.19,75.41Z" style="fill: rgb(235, 235, 235); transform-origin: 348.61px 100.935px;" id="el8vsr2o0zc8o" class="animable"></path><path d="M420.46,466s-15-77.93-15.08-94c0-22.18,16.94-31,16.94-31l-6.6-18.82H452l-5.73,18.69S465.4,351,462.74,374c-5,43-12.93,92-12.93,92Z" style="fill: rgb(235, 235, 235); transform-origin: 434.187px 394.09px;" id="elbhyzztst82w" class="animable"></path><path d="M455.08,349.85a2,2,0,0,1-.4,0,9.15,9.15,0,0,0-1.19-.05,11.19,11.19,0,0,0-4.4,1,15.61,15.61,0,0,0-5.66,4.32,28.83,28.83,0,0,0-2.6,3.66,31.94,31.94,0,0,0-2.28,4.49,13.34,13.34,0,0,0-1.05,5.35,8.24,8.24,0,0,0,2.15,5.35,5.89,5.89,0,0,0,2.56,1.61,5.13,5.13,0,0,0,3.1-.08,7.31,7.31,0,0,0,4.35-4.7,7,7,0,0,0-1.52-6.51,10.58,10.58,0,0,0-6.23-3.61,14.19,14.19,0,0,0-7.5.9,23.47,23.47,0,0,0-6.74,4.11,23.76,23.76,0,0,0-7.94,13.16,16.5,16.5,0,0,0,.15,7.34,10.84,10.84,0,0,0,3.58,5.94,6.25,6.25,0,0,0,3,1.38,4.62,4.62,0,0,0,3.1-.62,6.37,6.37,0,0,0,2.77-5.31,6.57,6.57,0,0,0-.58-2.9,7.22,7.22,0,0,0-1.73-2.28,10.26,10.26,0,0,0-4.9-2.28,14.06,14.06,0,0,0-9.15,1.59,16.44,16.44,0,0,0-5.39,4.65,15.1,15.1,0,0,0-2.19,4c-.36,1-.48,1.52-.51,1.51a9.57,9.57,0,0,1,.42-1.54,14.24,14.24,0,0,1,2.11-4.06,16.63,16.63,0,0,1,5.42-4.79,14.35,14.35,0,0,1,9.36-1.69,10.5,10.5,0,0,1,5.1,2.34,7.69,7.69,0,0,1,1.84,2.4,6.9,6.9,0,0,1,.63,3.09,6.8,6.8,0,0,1-3,5.7,5.15,5.15,0,0,1-3.4.68,6.62,6.62,0,0,1-3.24-1.47,11.35,11.35,0,0,1-3.76-6.18,16.94,16.94,0,0,1-.17-7.57,24.21,24.21,0,0,1,8.1-13.45,23.79,23.79,0,0,1,6.89-4.2,14.69,14.69,0,0,1,7.79-.92,11.09,11.09,0,0,1,6.51,3.79,8.58,8.58,0,0,1,1.69,3.32,6.75,6.75,0,0,1-.09,3.65,7.73,7.73,0,0,1-4.66,5,5.55,5.55,0,0,1-3.37.08,6.29,6.29,0,0,1-2.76-1.75,8.74,8.74,0,0,1-2.24-5.63,14,14,0,0,1,1.12-5.5,32.42,32.42,0,0,1,2.34-4.52,27.66,27.66,0,0,1,2.66-3.68,15.48,15.48,0,0,1,5.8-4.31,11,11,0,0,1,4.49-.89A6.71,6.71,0,0,1,455.08,349.85Z" style="fill: rgb(224, 224, 224); transform-origin: 431.48px 371.904px;" id="elxd0pv8vtmic" class="animable"></path><path d="M456,408.72a13.17,13.17,0,0,1-.33,4,17.2,17.2,0,0,1-1.59,4.4,16.78,16.78,0,0,1-3.8,4.89,15.78,15.78,0,0,1-6.65,3.49,16.23,16.23,0,0,1-8.6-.12,15,15,0,0,1-7.74-5.47,14.4,14.4,0,0,1-3-9.7,7.16,7.16,0,0,1,2.15-4.78,5.2,5.2,0,0,1,4.95-1,6.19,6.19,0,0,1,3.83,3.07,7,7,0,0,1,.51,4.69,8.76,8.76,0,0,1-2.08,4,10,10,0,0,1-3.48,2.4,14.46,14.46,0,0,1-7.44.94,17.38,17.38,0,0,1-5.93-1.82A17.6,17.6,0,0,1,413,415a12.94,12.94,0,0,1-2.57-3,1,1,0,0,1,.18.2l.47.59a19.83,19.83,0,0,0,2.05,2.1,17.91,17.91,0,0,0,9.68,4.27,14.4,14.4,0,0,0,7.23-1,9.71,9.71,0,0,0,3.31-2.32,8.17,8.17,0,0,0,1.95-3.77,6.59,6.59,0,0,0-.48-4.36,5.69,5.69,0,0,0-3.53-2.81,4.7,4.7,0,0,0-4.47.88,6.67,6.67,0,0,0-2,4.44,14,14,0,0,0,2.86,9.35,14.62,14.62,0,0,0,7.48,5.31,15.86,15.86,0,0,0,8.36.16,15.4,15.4,0,0,0,6.5-3.35,16.4,16.4,0,0,0,3.79-4.75,16.94,16.94,0,0,0,1.65-4.3,19,19,0,0,0,.46-2.9c0-.31,0-.56,0-.76A1.83,1.83,0,0,1,456,408.72Z" style="fill: rgb(224, 224, 224); transform-origin: 433.231px 415.104px;" id="elwqisceop0ho" class="animable"></path><path d="M449.26,445.45c-.05.1-1.62-.75-4.37-1.55a22.37,22.37,0,0,0-2.27-.54c-.82-.19-1.71-.28-2.65-.4a31.36,31.36,0,0,0-6.12,0,31,31,0,0,0-6,1.32c-.89.32-1.74.61-2.5,1a20.39,20.39,0,0,0-2.09,1c-2.51,1.38-3.86,2.56-3.93,2.47a6.93,6.93,0,0,1,.93-.84,10.08,10.08,0,0,1,1.17-.89A17,17,0,0,1,423.1,446a18.39,18.39,0,0,1,2.09-1.1c.76-.39,1.62-.69,2.52-1a30.5,30.5,0,0,1,6.08-1.38,30.1,30.1,0,0,1,6.23,0,25.05,25.05,0,0,1,2.69.46,19.71,19.71,0,0,1,2.28.61,17.34,17.34,0,0,1,1.84.67,11,11,0,0,1,1.34.61A5.72,5.72,0,0,1,449.26,445.45Z" style="fill: rgb(224, 224, 224); transform-origin: 434.295px 445.557px;" id="elphjaq5pgm9h" class="animable"></path><path d="M446.73,342a7.74,7.74,0,0,1-1.2.84c-.79.52-2,1.21-3.46,2a60.69,60.69,0,0,1-12.27,4.8,59.63,59.63,0,0,1-13,2c-1.69.06-3.06.06-4,0a7.53,7.53,0,0,1-1.46-.13,8.63,8.63,0,0,1,1.47-.07c.93,0,2.29-.06,4-.17a66.15,66.15,0,0,0,12.91-2.12,67.68,67.68,0,0,0,12.23-4.62c1.51-.75,2.71-1.38,3.52-1.85A8.24,8.24,0,0,1,446.73,342Z" style="fill: rgb(224, 224, 224); transform-origin: 429.035px 346.842px;" id="elb6rsyhu3457" class="animable"></path><path d="M451.3,323.09c0,.05-.89-.09-2.5-.09a21.45,21.45,0,0,0-10.92,3,19.09,19.09,0,0,0-2.14,1.48,10,10,0,0,0-1.95,1.9,5.7,5.7,0,0,0-1.2,2.5,2.88,2.88,0,0,0,.84,2.58,6.13,6.13,0,0,0,2.68,1.35,6.87,6.87,0,0,0,3.08.36,2.34,2.34,0,0,0,1.65-2.2,5.34,5.34,0,0,0-.61-2.93,9.22,9.22,0,0,0-4-4.06,11.68,11.68,0,0,0-5.09-1.38,13.81,13.81,0,0,0-4.58.68,20.66,20.66,0,0,0-6,3.15c-.64.48-1.13.87-1.46,1.14a3.36,3.36,0,0,1-.52.39,3.49,3.49,0,0,1,.45-.47q.47-.45,1.41-1.23a20.16,20.16,0,0,1,6-3.33,13.93,13.93,0,0,1,4.71-.76,12,12,0,0,1,5.3,1.38,9.7,9.7,0,0,1,4.28,4.27,6,6,0,0,1,.67,3.2,3.59,3.59,0,0,1-.57,1.64,2.52,2.52,0,0,1-1.48,1,7,7,0,0,1-3.34-.36,6.6,6.6,0,0,1-2.9-1.49,3.36,3.36,0,0,1-1-3,6,6,0,0,1,1.31-2.73,10.8,10.8,0,0,1,2-2,18.53,18.53,0,0,1,2.2-1.49,20.61,20.61,0,0,1,4.35-1.92,20.1,20.1,0,0,1,6.79-.94,15.49,15.49,0,0,1,1.86.16A3.16,3.16,0,0,1,451.3,323.09Z" style="fill: rgb(224, 224, 224); transform-origin: 434.94px 329.721px;" id="el876uu7eyiv8" class="animable"></path></g><g id="freepik--Floor--inject-110" class="animable" style="transform-origin: 253px 466px;"><path d="M461.59,466c0,.15-93.4.26-208.58.26s-208.6-.11-208.6-.26,93.38-.26,208.6-.26S461.59,465.86,461.59,466Z" style="fill: rgb(38, 50, 56); transform-origin: 253px 466px;" id="ele9ea2531fxo" class="animable"></path></g><g id="freepik--Device--inject-110" class="animable" style="transform-origin: 262.66px 274.855px;"><path d="M327.31,465.35l-129.44-.07a28.2,28.2,0,0,1-28.18-28.2l.06-324.53A28.19,28.19,0,0,1,198,84.36l129.45.08a28.2,28.2,0,0,1,28.18,28.2l-.07,324.52A28.19,28.19,0,0,1,327.31,465.35Z" style="fill: rgb(38, 50, 56); transform-origin: 262.66px 274.855px;" id="el4udzt1q29lx" class="animable"></path><path d="M327.27,95.92l-25.1,0a6.24,6.24,0,0,0-6.09,6.37v4.55a6.24,6.24,0,0,1-6.1,6.37l-48.92,0a6.24,6.24,0,0,1-6.09-6.37v-4.56a6.24,6.24,0,0,0-6.09-6.37h-30.8a19.75,19.75,0,0,0-19.76,19.74l-.06,316.76A19.74,19.74,0,0,0,198,452.09l129.19.08a19.74,19.74,0,0,0,19.75-19.74L347,115.67A19.74,19.74,0,0,0,327.27,95.92Z" style="fill: rgb(255, 255, 255); transform-origin: 262.63px 274.04px;" id="eleakrecgy6j8" class="animable"></path><path d="M329.52,275.38a11.4,11.4,0,0,1,3.45-.26c.56,0,1.09,0,1.55,0l-.24.23a5.09,5.09,0,0,1,.24-1.92,5.22,5.22,0,0,1,.23,1.92v.22h-.24c-.46,0-1,0-1.55,0A11.79,11.79,0,0,1,329.52,275.38Z" style="fill: rgb(224, 224, 224); transform-origin: 332.141px 274.525px;" id="eln1tdqsfddhd" class="animable"></path><path d="M319.52,275.38a12.15,12.15,0,0,1,5,0,12.15,12.15,0,0,1-5,0Z" style="fill: rgb(224, 224, 224); transform-origin: 322.02px 275.38px;" id="elzk1gimhnnec" class="animable"></path><path d="M309.52,275.38a12.15,12.15,0,0,1,5,0,12.15,12.15,0,0,1-5,0Z" style="fill: rgb(224, 224, 224); transform-origin: 312.02px 275.38px;" id="elfgok5oln4y" class="animable"></path><path d="M299.52,275.38a12.15,12.15,0,0,1,5,0,12.15,12.15,0,0,1-5,0Z" style="fill: rgb(224, 224, 224); transform-origin: 302.02px 275.38px;" id="el1b466ttg3ye" class="animable"></path><path d="M289.52,275.38a12.15,12.15,0,0,1,5,0,12.15,12.15,0,0,1-5,0Z" style="fill: rgb(224, 224, 224); transform-origin: 292.02px 275.38px;" id="elpuf1s7mln4n" class="animable"></path><path d="M279.52,275.38a12.15,12.15,0,0,1,5,0,12.15,12.15,0,0,1-5,0Z" style="fill: rgb(224, 224, 224); transform-origin: 282.02px 275.38px;" id="elcvkw7h2lcyr" class="animable"></path><path d="M269.52,275.38a12.15,12.15,0,0,1,5,0,12.15,12.15,0,0,1-5,0Z" style="fill: rgb(224, 224, 224); transform-origin: 272.02px 275.38px;" id="elwcgx5aiebao" class="animable"></path><path d="M259.52,275.38a12.15,12.15,0,0,1,5,0,12.15,12.15,0,0,1-5,0Z" style="fill: rgb(224, 224, 224); transform-origin: 262.02px 275.38px;" id="elhm330f4942i" class="animable"></path><path d="M249.52,275.38a12.15,12.15,0,0,1,5,0,12.15,12.15,0,0,1-5,0Z" style="fill: rgb(224, 224, 224); transform-origin: 252.02px 275.38px;" id="elwe491n6r0o" class="animable"></path><path d="M239.52,275.38a12.15,12.15,0,0,1,5,0,12.15,12.15,0,0,1-5,0Z" style="fill: rgb(224, 224, 224); transform-origin: 242.02px 275.38px;" id="elare8196102w" class="animable"></path><path d="M229.52,275.38a12.15,12.15,0,0,1,5,0,12.15,12.15,0,0,1-5,0Z" style="fill: rgb(224, 224, 224); transform-origin: 232.02px 275.38px;" id="eldvffdvlw8ha" class="animable"></path><path d="M223.59,271.3a6.11,6.11,0,0,1,.26,2.5c0,.6,0,1.15-.06,1.58l-.2-.2c.57,0,.93.12.93.2s-.36.15-.93.2h-.18l0-.21c0-.43-.06-1-.06-1.58A6.31,6.31,0,0,1,223.59,271.3Z" style="fill: rgb(224, 224, 224); transform-origin: 223.918px 273.44px;" id="elr9mw2lqlnt" class="animable"></path><path d="M223.59,261.3a12.15,12.15,0,0,1,0,5,12.15,12.15,0,0,1,0-5Z" style="fill: rgb(224, 224, 224); transform-origin: 223.59px 263.8px;" id="el80d212b9e5e" class="animable"></path><path d="M223.59,251.3a12.15,12.15,0,0,1,0,5,12.15,12.15,0,0,1,0-5Z" style="fill: rgb(224, 224, 224); transform-origin: 223.59px 253.8px;" id="elf3iidu7ibpe" class="animable"></path><path d="M223.59,241.3a12.15,12.15,0,0,1,0,5,12.15,12.15,0,0,1,0-5Z" style="fill: rgb(224, 224, 224); transform-origin: 223.59px 243.8px;" id="el50ql2tahe7w" class="animable"></path><path d="M223.59,231.3a12.15,12.15,0,0,1,0,5,12.15,12.15,0,0,1,0-5Z" style="fill: rgb(224, 224, 224); transform-origin: 223.59px 233.8px;" id="elu4uuoujzvql" class="animable"></path><path d="M227.63,225.34a6.11,6.11,0,0,1-2.5.26c-.58,0-1.12,0-1.54,0l.21-.21c-.05.59-.12,1-.21,1s-.15-.37-.2-1l0-.18.22,0c.42,0,1-.06,1.54-.06A6.31,6.31,0,0,1,227.63,225.34Z" style="fill: rgb(224, 224, 224); transform-origin: 225.51px 225.747px;" id="el8o9jsxe5znj" class="animable"></path><path d="M237.63,225.34a12.15,12.15,0,0,1-5,0,12.15,12.15,0,0,1,5,0Z" style="fill: rgb(224, 224, 224); transform-origin: 235.13px 225.34px;" id="el7fz2zgfi517" class="animable"></path><path d="M247.63,225.34a12.15,12.15,0,0,1-5,0,12.15,12.15,0,0,1,5,0Z" style="fill: rgb(224, 224, 224); transform-origin: 245.13px 225.34px;" id="elflca45fremt" class="animable"></path><path d="M257.63,225.34a12.15,12.15,0,0,1-5,0,12.15,12.15,0,0,1,5,0Z" style="fill: rgb(224, 224, 224); transform-origin: 255.13px 225.34px;" id="el6qigdo4glb3" class="animable"></path><path d="M267.63,225.34a12.15,12.15,0,0,1-5,0,12.15,12.15,0,0,1,5,0Z" style="fill: rgb(224, 224, 224); transform-origin: 265.13px 225.34px;" id="el9sf5y4ajej7" class="animable"></path><path d="M277.63,225.34a12.15,12.15,0,0,1-5,0,12.15,12.15,0,0,1,5,0Z" style="fill: rgb(224, 224, 224); transform-origin: 275.13px 225.34px;" id="elpa8lox4bw2i" class="animable"></path><path d="M287.63,225.34a12.15,12.15,0,0,1-5,0,12.15,12.15,0,0,1,5,0Z" style="fill: rgb(224, 224, 224); transform-origin: 285.13px 225.34px;" id="elha0640ua07" class="animable"></path><path d="M297.63,225.34a12.15,12.15,0,0,1-5,0,12.15,12.15,0,0,1,5,0Z" style="fill: rgb(224, 224, 224); transform-origin: 295.13px 225.34px;" id="el6p29y614a4t" class="animable"></path><path d="M307.63,225.34a12.15,12.15,0,0,1-5,0,12.15,12.15,0,0,1,5,0Z" style="fill: rgb(224, 224, 224); transform-origin: 305.13px 225.34px;" id="elgdbuv5ji4at" class="animable"></path><path d="M317.63,225.34a12.15,12.15,0,0,1-5,0,12.15,12.15,0,0,1,5,0Z" style="fill: rgb(224, 224, 224); transform-origin: 315.13px 225.34px;" id="elucfy5x9krf" class="animable"></path><path d="M327.63,225.34a12.15,12.15,0,0,1-5,0,12.15,12.15,0,0,1,5,0Z" style="fill: rgb(224, 224, 224); transform-origin: 325.13px 225.34px;" id="elb8np328frm8" class="animable"></path><path d="M334.52,228.46a6.11,6.11,0,0,1-.26-2.5v-.62l.26.26a4.27,4.27,0,0,1-1.89-.26,4.36,4.36,0,0,1,1.89-.25h.24V226A6.31,6.31,0,0,1,334.52,228.46Z" style="fill: rgb(224, 224, 224); transform-origin: 333.711px 226.766px;" id="elnzpyyrmeevf" class="animable"></path><path d="M334.52,238.46a12.15,12.15,0,0,1,0-5,12.15,12.15,0,0,1,0,5Z" style="fill: rgb(224, 224, 224); transform-origin: 334.52px 235.96px;" id="el3nm96qtvfey" class="animable"></path><path d="M334.52,248.46a12.15,12.15,0,0,1,0-5,12.15,12.15,0,0,1,0,5Z" style="fill: rgb(224, 224, 224); transform-origin: 334.52px 245.96px;" id="elkwq4b7krl98" class="animable"></path><path d="M334.52,258.46a12.15,12.15,0,0,1,0-5,12.15,12.15,0,0,1,0,5Z" style="fill: rgb(224, 224, 224); transform-origin: 334.52px 255.96px;" id="el8aawdpzkxm8" class="animable"></path><path d="M334.52,268.46a12.15,12.15,0,0,1,0-5,12.15,12.15,0,0,1,0,5Z" style="fill: rgb(224, 224, 224); transform-origin: 334.52px 265.96px;" id="elzngoqnqifd" class="animable"></path><path d="M317.3,253.23a3.21,3.21,0,1,1-3.21-3.21A3.2,3.2,0,0,1,317.3,253.23Z" style="fill: rgb(38, 50, 56); transform-origin: 314.09px 253.23px;" id="el6hbx1rkaifk" class="animable"></path><path d="M314.59,253.23h-1v-7.4a11.08,11.08,0,0,0-11.06-11.07H185.8v-1H302.53a12.08,12.08,0,0,1,12.06,12.07Z" style="fill: rgb(38, 50, 56); transform-origin: 250.195px 243.495px;" id="el4qkpbnez8z" class="animable"></path><path d="M235.36,184.58a6.11,6.11,0,0,1,2.5-.26c-.52.52-.14.14-.26.25h0v-.49c0-.15,0-.3,0-.47s0-.57.06-.79c0-.45.11-.73.18-.73s.14.28.19.73c0,.22,0,.49,0,.79l0,.47v.49h0c-.11.12.26-.25-.26.27A6.31,6.31,0,0,1,235.36,184.58Z" style="fill: rgb(224, 224, 224); transform-origin: 236.708px 183.477px;" id="elu18m8yfa72o" class="animable"></path><path d="M225.38,184.58a12.1,12.1,0,0,1,5,0,12.1,12.1,0,0,1-5,0Z" style="fill: rgb(224, 224, 224); transform-origin: 227.88px 184.58px;" id="elnikxjc0kbpj" class="animable"></path><path d="M215.4,184.58a12.1,12.1,0,0,1,5,0,12.1,12.1,0,0,1-5,0Z" style="fill: rgb(224, 224, 224); transform-origin: 217.9px 184.58px;" id="el5d3s4skxwxp" class="animable"></path><path d="M205.42,184.58a12.1,12.1,0,0,1,5,0,12.1,12.1,0,0,1-5,0Z" style="fill: rgb(224, 224, 224); transform-origin: 207.92px 184.58px;" id="eledlzdx7v8dw" class="animable"></path><path d="M195.44,184.58a12.1,12.1,0,0,1,5,0,12.1,12.1,0,0,1-5,0Z" style="fill: rgb(224, 224, 224); transform-origin: 197.94px 184.58px;" id="elycsfzpskmld" class="animable"></path><path d="M188,182.08a6.31,6.31,0,0,1,.26,2.5l-.26-.26h.5l.47,0,.8,0c.45.05.73.11.73.19s-.28.13-.73.18l-.8.06h-1l-.26-.26A6.11,6.11,0,0,1,188,182.08Z" style="fill: rgb(224, 224, 224); transform-origin: 189.095px 183.415px;" id="elq0sirpo6s2k" class="animable"></path><path d="M188,172.62a5.62,5.62,0,0,1,.26,2.36,5.69,5.69,0,0,1-.26,2.37,5.5,5.5,0,0,1-.26-2.37A5.44,5.44,0,0,1,188,172.62Z" style="fill: rgb(224, 224, 224); transform-origin: 187.998px 174.985px;" id="elvjph8byvxzd" class="animable"></path><path d="M188,163.15a10.93,10.93,0,0,1,0,4.74,10.93,10.93,0,0,1,0-4.74Z" style="fill: rgb(224, 224, 224); transform-origin: 188px 165.52px;" id="elwsbv9c0v5as" class="animable"></path><path d="M188,153.69a5.69,5.69,0,0,1,.26,2.37,5.62,5.62,0,0,1-.26,2.36,5.44,5.44,0,0,1-.26-2.36A5.5,5.5,0,0,1,188,153.69Z" style="fill: rgb(224, 224, 224); transform-origin: 187.998px 156.055px;" id="elxshek9ta1ef" class="animable"></path><path d="M188,144.23a5.69,5.69,0,0,1,.26,2.37A5.62,5.62,0,0,1,188,149a5.44,5.44,0,0,1-.26-2.36A5.5,5.5,0,0,1,188,144.23Z" style="fill: rgb(224, 224, 224); transform-origin: 187.998px 146.615px;" id="elzi1nc1w981p" class="animable"></path><path d="M190.45,137a6.11,6.11,0,0,1-2.5.26l.26-.26h0v1c0,.3,0,.57-.06.79,0,.45-.11.73-.18.73s-.14-.28-.19-.73c0-.22,0-.49,0-.79l0-.47V137h0l.26-.26A6.31,6.31,0,0,1,190.45,137Z" style="fill: rgb(224, 224, 224); transform-origin: 189.115px 138.118px;" id="el5zjwwrvnz8" class="animable"></path><path d="M200.43,137a12.1,12.1,0,0,1-5,0,12.1,12.1,0,0,1,5,0Z" style="fill: rgb(224, 224, 224); transform-origin: 197.93px 137px;" id="ely0bb8u6t1gb" class="animable"></path><path d="M210.41,137a12.1,12.1,0,0,1-5,0,12.1,12.1,0,0,1,5,0Z" style="fill: rgb(224, 224, 224); transform-origin: 207.91px 137px;" id="elqnj0ulxtrrm" class="animable"></path><path d="M220.39,137a12.1,12.1,0,0,1-5,0,12.1,12.1,0,0,1,5,0Z" style="fill: rgb(224, 224, 224); transform-origin: 217.89px 137px;" id="elw8hygsh0bg" class="animable"></path><path d="M230.37,137a12.1,12.1,0,0,1-5,0,12.1,12.1,0,0,1,5,0Z" style="fill: rgb(224, 224, 224); transform-origin: 227.87px 137px;" id="eluky4sdytdx" class="animable"></path><path d="M237.86,139.5a6.31,6.31,0,0,1-.26-2.5l.26.26h-.5l-.47,0-.8-.05c-.45-.05-.73-.11-.73-.19s.28-.13.73-.18l.8-.06h1l.26.26A6.11,6.11,0,0,1,237.86,139.5Z" style="fill: rgb(224, 224, 224); transform-origin: 236.766px 138.14px;" id="elfg2m39qf0bn" class="animable"></path><path d="M237.86,149a5.62,5.62,0,0,1-.26-2.36,5.69,5.69,0,0,1,.26-2.37,5.5,5.5,0,0,1,.26,2.37A5.44,5.44,0,0,1,237.86,149Z" style="fill: rgb(224, 224, 224); transform-origin: 237.862px 146.635px;" id="el0m2vta3wlh0j" class="animable"></path><path d="M237.86,158.42a5.62,5.62,0,0,1-.26-2.36,5.69,5.69,0,0,1,.26-2.37,5.5,5.5,0,0,1,.26,2.37A5.44,5.44,0,0,1,237.86,158.42Z" style="fill: rgb(224, 224, 224); transform-origin: 237.862px 156.055px;" id="elok3uvonilzi" class="animable"></path><path d="M237.86,167.89a10.93,10.93,0,0,1,0-4.74,10.93,10.93,0,0,1,0,4.74Z" style="fill: rgb(224, 224, 224); transform-origin: 237.86px 165.52px;" id="el2u9w8wbj6fe" class="animable"></path><path d="M237.86,177.35a5.69,5.69,0,0,1-.26-2.37,5.62,5.62,0,0,1,.26-2.36,5.44,5.44,0,0,1,.26,2.36A5.5,5.5,0,0,1,237.86,177.35Z" style="fill: rgb(224, 224, 224); transform-origin: 237.862px 174.985px;" id="elmtzqqzlfpog" class="animable"></path><path d="M335.43,216.27a6.11,6.11,0,0,1,2.5-.26c-.52.52-.15.14-.26.25h0v-.49l0-.47c0-.3,0-.57.05-.79.05-.45.12-.73.19-.73s.14.28.18.73c0,.22,0,.49.06.79s0,.32,0,.47v.49h0c-.12.12.26-.25-.26.27A6.31,6.31,0,0,1,335.43,216.27Z" style="fill: rgb(224, 224, 224); transform-origin: 336.803px 215.168px;" id="el7ikzmd9v3jh" class="animable"></path><path d="M325.2,216.27a12.68,12.68,0,0,1,5.11,0,12.68,12.68,0,0,1-5.11,0Z" style="fill: rgb(224, 224, 224); transform-origin: 327.755px 216.27px;" id="el6f2casw072y" class="animable"></path><path d="M315,216.27a12.73,12.73,0,0,1,5.12,0,12.73,12.73,0,0,1-5.12,0Z" style="fill: rgb(224, 224, 224); transform-origin: 317.56px 216.27px;" id="elmu3r1ef6udi" class="animable"></path><path d="M304.73,216.27a12.73,12.73,0,0,1,5.12,0,12.73,12.73,0,0,1-5.12,0Z" style="fill: rgb(224, 224, 224); transform-origin: 307.29px 216.27px;" id="elhfzjc4vxmqp" class="animable"></path><path d="M294.5,216.27a12.73,12.73,0,0,1,5.12,0,12.73,12.73,0,0,1-5.12,0Z" style="fill: rgb(224, 224, 224); transform-origin: 297.06px 216.27px;" id="el8zycwqted4e" class="animable"></path><path d="M284.27,216.27a12.73,12.73,0,0,1,5.12,0,12.73,12.73,0,0,1-5.12,0Z" style="fill: rgb(224, 224, 224); transform-origin: 286.83px 216.27px;" id="elkqzpgmvvj5" class="animable"></path><path d="M274,216.27a12.68,12.68,0,0,1,5.11,0,12.68,12.68,0,0,1-5.11,0Z" style="fill: rgb(224, 224, 224); transform-origin: 276.555px 216.27px;" id="eljcz4ma2bu9b" class="animable"></path><path d="M263.81,216.27a12.68,12.68,0,0,1,5.11,0,12.68,12.68,0,0,1-5.11,0Z" style="fill: rgb(224, 224, 224); transform-origin: 266.365px 216.27px;" id="elr7hxxjvenhk" class="animable"></path><path d="M253.57,216.27a12.73,12.73,0,0,1,5.12,0,12.73,12.73,0,0,1-5.12,0Z" style="fill: rgb(224, 224, 224); transform-origin: 256.13px 216.27px;" id="el8s5fticzwek" class="animable"></path><path d="M246,213.77a6.27,6.27,0,0,1,.26,2.5L246,216h.5l.47,0,.8.05c.45,0,.73.11.73.19s-.28.13-.73.18l-.8.06h-1l-.26-.26A6.07,6.07,0,0,1,246,213.77Z" style="fill: rgb(224, 224, 224); transform-origin: 247.094px 215.125px;" id="el0f9cavkv196i" class="animable"></path><path d="M246,203.81a12.05,12.05,0,0,1,0,5,12.05,12.05,0,0,1,0-5Z" style="fill: rgb(224, 224, 224); transform-origin: 246px 206.31px;" id="elcz6uzc97uia" class="animable"></path><path d="M246,193.86a12.05,12.05,0,0,1,0,5,12.05,12.05,0,0,1,0-5Z" style="fill: rgb(224, 224, 224); transform-origin: 246px 196.36px;" id="elomk5p43t15" class="animable"></path><path d="M246,183.91a12.05,12.05,0,0,1,0,5,12.05,12.05,0,0,1,0-5Z" style="fill: rgb(224, 224, 224); transform-origin: 246px 186.41px;" id="eldqbegz6oaxv" class="animable"></path><path d="M246,174a12.05,12.05,0,0,1,0,5,12.05,12.05,0,0,1,0-5Z" style="fill: rgb(224, 224, 224); transform-origin: 246px 176.5px;" id="ell77i9tg5wb" class="animable"></path><path d="M246,164a12.05,12.05,0,0,1,0,5,12.05,12.05,0,0,1,0-5Z" style="fill: rgb(224, 224, 224); transform-origin: 246px 166.5px;" id="el91uy27krbv" class="animable"></path><path d="M246,154.06a12.05,12.05,0,0,1,0,5,12.05,12.05,0,0,1,0-5Z" style="fill: rgb(224, 224, 224); transform-origin: 246px 156.56px;" id="el13mah4x217as" class="animable"></path><path d="M246,144.11a12.05,12.05,0,0,1,0,5,12.05,12.05,0,0,1,0-5Z" style="fill: rgb(224, 224, 224); transform-origin: 246px 146.61px;" id="elsabwmu77tr" class="animable"></path><path d="M248.46,136.64a6.31,6.31,0,0,1-2.5.26l.26-.26h0v1c0,.3,0,.57-.06.79,0,.46-.11.74-.18.74s-.14-.28-.19-.74c0-.22,0-.49-.05-.79l0-.47v-.49h0l.26-.26A6.11,6.11,0,0,1,248.46,136.64Z" style="fill: rgb(224, 224, 224); transform-origin: 247.1px 137.775px;" id="eltkrp0xlacb8" class="animable"></path><path d="M258.69,136.64a12.73,12.73,0,0,1-5.12,0,12.73,12.73,0,0,1,5.12,0Z" style="fill: rgb(224, 224, 224); transform-origin: 256.13px 136.64px;" id="elk5mol8es7um" class="animable"></path><path d="M268.92,136.64a12.68,12.68,0,0,1-5.11,0,12.68,12.68,0,0,1,5.11,0Z" style="fill: rgb(224, 224, 224); transform-origin: 266.365px 136.64px;" id="elw0ofg9tcg8e" class="animable"></path><path d="M279.15,136.64a12.68,12.68,0,0,1-5.11,0,12.68,12.68,0,0,1,5.11,0Z" style="fill: rgb(224, 224, 224); transform-origin: 276.595px 136.64px;" id="elq2lfql20tz" class="animable"></path><path d="M289.39,136.64a12.73,12.73,0,0,1-5.12,0,12.73,12.73,0,0,1,5.12,0Z" style="fill: rgb(224, 224, 224); transform-origin: 286.83px 136.64px;" id="ell09hewk22ee" class="animable"></path><path d="M299.62,136.64a12.73,12.73,0,0,1-5.12,0,12.73,12.73,0,0,1,5.12,0Z" style="fill: rgb(224, 224, 224); transform-origin: 297.06px 136.64px;" id="elvpegdnv8phr" class="animable"></path><path d="M309.85,136.64a12.73,12.73,0,0,1-5.12,0,12.73,12.73,0,0,1,5.12,0Z" style="fill: rgb(224, 224, 224); transform-origin: 307.29px 136.64px;" id="el4xdt5kiaibp" class="animable"></path><path d="M320.08,136.64a12.73,12.73,0,0,1-5.12,0,12.73,12.73,0,0,1,5.12,0Z" style="fill: rgb(224, 224, 224); transform-origin: 317.52px 136.64px;" id="elm8dglnigt0i" class="animable"></path><path d="M330.31,136.64a12.68,12.68,0,0,1-5.11,0,12.68,12.68,0,0,1,5.11,0Z" style="fill: rgb(224, 224, 224); transform-origin: 327.755px 136.64px;" id="elhnla0fio7l5" class="animable"></path><path d="M337.93,139.14a6.11,6.11,0,0,1-.26-2.5l.26.26h-1l-.8-.06c-.45,0-.73-.11-.73-.18s.28-.14.73-.19l.8,0,.46,0h.51l.26.26A6.31,6.31,0,0,1,337.93,139.14Z" style="fill: rgb(224, 224, 224); transform-origin: 336.795px 137.805px;" id="elrbuuyi3m9q" class="animable"></path><path d="M337.93,149.09a12.05,12.05,0,0,1,0-5,12.05,12.05,0,0,1,0,5Z" style="fill: rgb(224, 224, 224); transform-origin: 337.93px 146.59px;" id="elbqlia34xlnp" class="animable"></path><path d="M337.93,159a12.05,12.05,0,0,1,0-5,12.05,12.05,0,0,1,0,5Z" style="fill: rgb(224, 224, 224); transform-origin: 337.93px 156.5px;" id="el2jnzn40u1sp" class="animable"></path><path d="M337.93,169a12.05,12.05,0,0,1,0-5,12.05,12.05,0,0,1,0,5Z" style="fill: rgb(224, 224, 224); transform-origin: 337.93px 166.5px;" id="elbvvr9ix50xf" class="animable"></path><path d="M337.93,178.94a12.05,12.05,0,0,1,0-5,12.05,12.05,0,0,1,0,5Z" style="fill: rgb(224, 224, 224); transform-origin: 337.93px 176.44px;" id="elfdold9o21qd" class="animable"></path><path d="M337.93,188.89a12.05,12.05,0,0,1,0-5,12.05,12.05,0,0,1,0,5Z" style="fill: rgb(224, 224, 224); transform-origin: 337.93px 186.39px;" id="elpo16spbf3" class="animable"></path><path d="M337.93,198.84a12.05,12.05,0,0,1,0-5,12.05,12.05,0,0,1,0,5Z" style="fill: rgb(224, 224, 224); transform-origin: 337.93px 196.34px;" id="el1uv6b2xaody" class="animable"></path><path d="M337.93,208.79a12.05,12.05,0,0,1,0-5,12.05,12.05,0,0,1,0,5Z" style="fill: rgb(224, 224, 224); transform-origin: 337.93px 206.29px;" id="el8y5qm24q9uq" class="animable"></path><path d="M330.55,436.16a12.15,12.15,0,0,1,5,0,12.15,12.15,0,0,1-5,0Z" style="fill: rgb(224, 224, 224); transform-origin: 333.05px 436.16px;" id="eljd5ie7gz5sk" class="animable"></path><path d="M320.55,436.16a12.15,12.15,0,0,1,5,0,12.15,12.15,0,0,1-5,0Z" style="fill: rgb(224, 224, 224); transform-origin: 323.05px 436.16px;" id="elid27j70wzu" class="animable"></path><path d="M310.55,436.16a12.15,12.15,0,0,1,5,0,12.15,12.15,0,0,1-5,0Z" style="fill: rgb(224, 224, 224); transform-origin: 313.05px 436.16px;" id="eloaoagumzear" class="animable"></path><path d="M300.55,436.16a12.15,12.15,0,0,1,5,0,12.15,12.15,0,0,1-5,0Z" style="fill: rgb(224, 224, 224); transform-origin: 303.05px 436.16px;" id="elq1lw1oejmn" class="animable"></path><path d="M290.55,436.16a12.15,12.15,0,0,1,5,0,12.15,12.15,0,0,1-5,0Z" style="fill: rgb(224, 224, 224); transform-origin: 293.05px 436.16px;" id="el1i9ijl6tbfh" class="animable"></path><path d="M280.55,436.16a12.15,12.15,0,0,1,5,0,12.15,12.15,0,0,1-5,0Z" style="fill: rgb(224, 224, 224); transform-origin: 283.05px 436.16px;" id="el1vfuxfsrzm5" class="animable"></path><path d="M270.55,436.16a12.15,12.15,0,0,1,5,0,12.15,12.15,0,0,1-5,0Z" style="fill: rgb(224, 224, 224); transform-origin: 273.05px 436.16px;" id="elbav4e6ielaw" class="animable"></path><path d="M260.55,436.16a12.15,12.15,0,0,1,5,0,12.15,12.15,0,0,1-5,0Z" style="fill: rgb(224, 224, 224); transform-origin: 263.05px 436.16px;" id="elpgtobuzs1o" class="animable"></path><path d="M250.55,436.16a12.15,12.15,0,0,1,5,0,12.15,12.15,0,0,1-5,0Z" style="fill: rgb(224, 224, 224); transform-origin: 253.05px 436.16px;" id="elgzq9azpwp" class="animable"></path><path d="M240.55,436.16a12.15,12.15,0,0,1,5,0,12.15,12.15,0,0,1-5,0Z" style="fill: rgb(224, 224, 224); transform-origin: 243.05px 436.16px;" id="elgwh1d4u5m4v" class="animable"></path><path d="M230.55,436.16a12.15,12.15,0,0,1,5,0,12.15,12.15,0,0,1-5,0Z" style="fill: rgb(224, 224, 224); transform-origin: 233.05px 436.16px;" id="el5ba3tv22i8o" class="animable"></path><path d="M220.55,436.16a12.15,12.15,0,0,1,5,0,12.15,12.15,0,0,1-5,0Z" style="fill: rgb(224, 224, 224); transform-origin: 223.05px 436.16px;" id="el309jpliwzbs" class="animable"></path><path d="M210.55,436.16a12.15,12.15,0,0,1,5,0,12.15,12.15,0,0,1-5,0Z" style="fill: rgb(224, 224, 224); transform-origin: 213.05px 436.16px;" id="ele1a9nkrtqs" class="animable"></path><path d="M200.55,436.16a12.15,12.15,0,0,1,5,0,12.15,12.15,0,0,1-5,0Z" style="fill: rgb(224, 224, 224); transform-origin: 203.05px 436.16px;" id="el6jmmhrtk3pq" class="animable"></path><path d="M195.17,431.54a6.11,6.11,0,0,1,.26,2.5,15.18,15.18,0,0,1-.12,2.12l-.14-.13c.24,0,.38.08.38.13s-.14.1-.38.14l-.11,0,0-.16a13.49,13.49,0,0,1-.13-2.12A6.31,6.31,0,0,1,195.17,431.54Z" style="fill: rgb(224, 224, 224); transform-origin: 195.224px 433.92px;" id="elswsm9d70s58" class="animable"></path><path d="M195.17,421.54a12.15,12.15,0,0,1,0,5,12.15,12.15,0,0,1,0-5Z" style="fill: rgb(224, 224, 224); transform-origin: 195.17px 424.04px;" id="el9ydgkp15wn6" class="animable"></path><path d="M195.17,411.54a12.15,12.15,0,0,1,0,5,12.15,12.15,0,0,1,0-5Z" style="fill: rgb(224, 224, 224); transform-origin: 195.17px 414.04px;" id="elrn6xrhv7nw" class="animable"></path><path d="M195.91,402.27c0,.07-.28.14-.74.18l.19-.18a17.43,17.43,0,0,1,.07,1.77,6.11,6.11,0,0,1-.26,2.5,6.31,6.31,0,0,1-.26-2.5,17.05,17.05,0,0,1,.08-1.77l0-.2.16,0C195.63,402.13,195.91,402.2,195.91,402.27Z" style="fill: rgb(224, 224, 224); transform-origin: 195.395px 404.305px;" id="elbby4vgwsevv" class="animable"></path><path d="M205.91,402.27a12.15,12.15,0,0,1-5,0,12.15,12.15,0,0,1,5,0Z" style="fill: rgb(224, 224, 224); transform-origin: 203.41px 402.27px;" id="elixxmf08brhe" class="animable"></path><path d="M215.91,402.27a12.15,12.15,0,0,1-5,0,12.15,12.15,0,0,1,5,0Z" style="fill: rgb(224, 224, 224); transform-origin: 213.41px 402.27px;" id="elhjybvm00rja" class="animable"></path><path d="M225.91,402.27a12.15,12.15,0,0,1-5,0,12.15,12.15,0,0,1,5,0Z" style="fill: rgb(224, 224, 224); transform-origin: 223.41px 402.27px;" id="el6vhqiwsqxxq" class="animable"></path><path d="M235.91,402.27a12.15,12.15,0,0,1-5,0,12.15,12.15,0,0,1,5,0Z" style="fill: rgb(224, 224, 224); transform-origin: 233.41px 402.27px;" id="el5zjly4mmyb3" class="animable"></path><path d="M245.91,402.27a12.15,12.15,0,0,1-5,0,12.15,12.15,0,0,1,5,0Z" style="fill: rgb(224, 224, 224); transform-origin: 243.41px 402.27px;" id="elvbmw91p5sn" class="animable"></path><path d="M255.91,402.27a12.15,12.15,0,0,1-5,0,12.15,12.15,0,0,1,5,0Z" style="fill: rgb(224, 224, 224); transform-origin: 253.41px 402.27px;" id="ely3pdrygnc6" class="animable"></path><path d="M265.91,402.27a12.15,12.15,0,0,1-5,0,12.15,12.15,0,0,1,5,0Z" style="fill: rgb(224, 224, 224); transform-origin: 263.41px 402.27px;" id="ely3jwq0phi2l" class="animable"></path><path d="M275.91,402.27a12.15,12.15,0,0,1-5,0,12.15,12.15,0,0,1,5,0Z" style="fill: rgb(224, 224, 224); transform-origin: 273.41px 402.27px;" id="el3ht94f0lcr8" class="animable"></path><path d="M285.91,402.27a12.15,12.15,0,0,1-5,0,12.15,12.15,0,0,1,5,0Z" style="fill: rgb(224, 224, 224); transform-origin: 283.41px 402.27px;" id="elhigj2s9xt4" class="animable"></path><path d="M295.91,402.27a12.15,12.15,0,0,1-5,0,12.15,12.15,0,0,1,5,0Z" style="fill: rgb(224, 224, 224); transform-origin: 293.41px 402.27px;" id="elbob70uqfx6" class="animable"></path><path d="M305.91,402.27a12.15,12.15,0,0,1-5,0,12.15,12.15,0,0,1,5,0Z" style="fill: rgb(224, 224, 224); transform-origin: 303.41px 402.27px;" id="ely4v31chvby" class="animable"></path><path d="M315.91,402.27a12.15,12.15,0,0,1-5,0,12.15,12.15,0,0,1,5,0Z" style="fill: rgb(224, 224, 224); transform-origin: 313.41px 402.27px;" id="el1vr5rund83y" class="animable"></path><path d="M325.91,402.27a12.15,12.15,0,0,1-5,0,12.15,12.15,0,0,1,5,0Z" style="fill: rgb(224, 224, 224); transform-origin: 323.41px 402.27px;" id="el1ndddj3971k" class="animable"></path><path d="M335.55,402.63c-.05,0-.09-.13-.13-.36l.13.13a13.7,13.7,0,0,1-2.14.13,6.27,6.27,0,0,1-2.5-.26,6.27,6.27,0,0,1,2.5-.26,13.7,13.7,0,0,1,2.14.13l.15,0,0,.11C335.64,402.5,335.6,402.63,335.55,402.63Z" style="fill: rgb(224, 224, 224); transform-origin: 333.305px 402.305px;" id="elrzypbjy8tkm" class="animable"></path><path d="M335.55,412.63a12.15,12.15,0,0,1,0-5,12.15,12.15,0,0,1,0,5Z" style="fill: rgb(224, 224, 224); transform-origin: 335.55px 410.13px;" id="el7mjvx07qi5h" class="animable"></path><path d="M335.55,422.63a12.15,12.15,0,0,1,0-5,12.15,12.15,0,0,1,0,5Z" style="fill: rgb(224, 224, 224); transform-origin: 335.55px 420.13px;" id="elqb4kp7w33lc" class="animable"></path><path d="M335.55,432.63a12.15,12.15,0,0,1,0-5,12.15,12.15,0,0,1,0,5Z" style="fill: rgb(224, 224, 224); transform-origin: 335.55px 430.13px;" id="el535v2e1s69h" class="animable"></path></g><g id="freepik--Video--inject-110" class="animable" style="transform-origin: 228.73px 360.8px;"><rect x="135.46" y="290.95" width="168" height="104.13" rx="7.87" style="fill: rgb(69, 90, 100); transform-origin: 219.46px 343.015px;" id="el6t3nlx36ujn" class="animable"></rect><g id="elreu191ue9r"><circle cx="220.89" cy="340.56" r="18.36" style="fill: rgb(124, 58, 237); transform-origin: 220.89px 340.56px; transform: rotate(-76.01deg);" class="animable"></circle></g><path d="M216.47,345.93V335.09a.68.68,0,0,1,1-.6l9.69,5.46a.69.69,0,0,1,0,1.2l-9.68,5.38A.69.69,0,0,1,216.47,345.93Z" style="fill: rgb(255, 255, 255); transform-origin: 221.99px 340.509px;" id="eldped4pp7tu7" class="animable"></path><rect x="151.11" y="382.31" width="130.12" height="0.59" style="fill: rgb(255, 255, 255); transform-origin: 216.17px 382.605px;" id="el74y8pfg3gk6" class="animable"></rect><rect x="151.01" y="381.67" width="40.66" height="1.58" style="fill: rgb(124, 58, 237); transform-origin: 171.34px 382.46px;" id="el6idl3ehg5uo" class="animable"></rect><path d="M193,382.61a2,2,0,1,1-2-2A2,2,0,0,1,193,382.61Z" style="fill: rgb(124, 58, 237); transform-origin: 191px 382.61px;" id="el0a2bxnpyoo8" class="animable"></path><polygon points="291.11 382.16 290.52 382.16 290.52 380.45 292.23 380.45 292.23 381.04 291.11 381.04 291.11 382.16" style="fill: rgb(255, 255, 255); transform-origin: 291.375px 381.305px;" id="elzzko51wf5wb" class="animable"></polygon><polygon points="292.23 384.39 290.52 384.39 290.52 382.68 291.11 382.68 291.11 383.8 292.23 383.8 292.23 384.39" style="fill: rgb(255, 255, 255); transform-origin: 291.375px 383.535px;" id="elidwif49amjm" class="animable"></polygon><polygon points="294.95 384.39 293.24 384.39 293.24 383.8 294.36 383.8 294.36 382.68 294.95 382.68 294.95 384.39" style="fill: rgb(255, 255, 255); transform-origin: 294.095px 383.535px;" id="elbfxdrd8nxfj" class="animable"></polygon><polygon points="294.95 382.16 294.36 382.16 294.36 381.04 293.24 381.04 293.24 380.45 294.95 380.45 294.95 382.16" style="fill: rgb(255, 255, 255); transform-origin: 294.095px 381.305px;" id="elwxy1kpthlh" class="animable"></polygon><path d="M322,365.64a3.21,3.21,0,1,1-3.21-3.21A3.21,3.21,0,0,1,322,365.64Z" style="fill: rgb(38, 50, 56); transform-origin: 318.79px 365.64px;" id="elchnq2295nsn" class="animable"></path><path d="M260.66,427.44a3.21,3.21,0,1,1-3.21-3.21A3.21,3.21,0,0,1,260.66,427.44Z" style="fill: rgb(38, 50, 56); transform-origin: 257.45px 427.44px;" id="elv2i4181x46" class="animable"></path><path d="M299.68,415.68h-64.4a19.64,19.64,0,0,1-19.62-19.61v-1h1v1a18.64,18.64,0,0,0,18.62,18.61h64.4a18.63,18.63,0,0,0,18.61-18.61V364.46h1v31.61A19.63,19.63,0,0,1,299.68,415.68Z" style="fill: rgb(38, 50, 56); transform-origin: 267.475px 390.07px;" id="el5ropbdn6d3w" class="animable"></path><rect x="256.95" y="414.81" width="1" height="11.91" style="fill: rgb(38, 50, 56); transform-origin: 257.45px 420.765px;" id="eljp1lxc6184r" class="animable"></rect></g><g id="freepik--Plant--inject-110" class="animable" style="transform-origin: 390.84px 388.83px;"><path d="M392.93,386.32c.32-1.7.1-3.47.45-6.68s1.74-4.48,2.51-6.76,1.81-7.58,1.81-7.58h-.84s-2.75,9.88-3.54,12.11a21.71,21.71,0,0,0-.91,6.3,50.58,50.58,0,0,1-.87,5.42s-1-11.45-1.43-15.47-.23-11.83-.23-11.83l-1-.46v5.93s.4,5.66.72,8.9,1.08,13.77.89,21.5a54,54,0,0,0,1.7,14.37c0,.25.29,7.88.15,11.67s-.22,18.75-.07,19.41l3.06.81s-1.78-13.2-1.45-22.74-.4-9-1.54-13.59-.78-16.93-.78-16.93A33.7,33.7,0,0,0,392.93,386.32Z" style="fill: rgb(38, 50, 56); transform-origin: 393.29px 402.665px;" id="ele6dyedufz9e" class="animable"></path><path d="M396.45,366.53a15.72,15.72,0,0,0,7.17-5.29c2.78-3.88,4.6-7.06,7.49-8.59-5.56-2.71-9,2.7-11.77,4.35s-5.56,2.83-5.13,6S396.45,366.53,396.45,366.53Z" style="fill: rgb(124, 58, 237); transform-origin: 402.638px 359.216px;" id="eligigtkquied" class="animable"></path><path d="M414.35,318.31a34.23,34.23,0,0,1-1,3.44,42.51,42.51,0,0,1-1.72,4.22,26.94,26.94,0,0,1-2.28,3.95,9.55,9.55,0,0,1-2.73,2.76,5,5,0,0,1-.66.32,39.94,39.94,0,0,0-7.06,3.29,15.31,15.31,0,0,1-1.51-8.54,14,14,0,0,1,.75-2.95,18.32,18.32,0,0,1,1.21-2.57c.23-.42.45-.8.63-1.12s.38-.7.58-1.05a24.15,24.15,0,0,1,4-5.24c.35-.34.72-.68,1.11-1a6.91,6.91,0,0,1,1.53-1,15.22,15.22,0,0,1,6.28-1.16,9.45,9.45,0,0,1,1.18,3.65,1.11,1.11,0,0,1,0,.19A9.61,9.61,0,0,1,414.35,318.31Z" style="fill: rgb(124, 58, 237); transform-origin: 405.98px 323.972px;" id="elu0utk265v4g" class="animable"></path><path d="M402.55,346.06s7.7-5.77,17.44-4.71c-5.24-5.65-9.52-5.41-13.16-3.41S401,341.47,402.55,346.06Z" style="fill: rgb(124, 58, 237); transform-origin: 411.018px 341.354px;" id="eltbc3ipszqyg" class="animable"></path><path d="M393.67,336.88s-3.74-5.3-8.87-6.71a42,42,0,0,0-11-1.18,10.33,10.33,0,0,1,9.2-4.23c6.31.35,8.23,2.11,9.3,4.47S394.53,334.17,393.67,336.88Z" style="fill: rgb(124, 58, 237); transform-origin: 383.885px 330.803px;" id="el46f4aikb05t" class="animable"></path><path d="M392.93,354.06c0,.72-.05,1.41-.09,2.06-.23,3.5-.95,5.9-3.66,6.3a8.61,8.61,0,0,1-5.35-5.18c-1.49-4.12-.64-4.83-2.89-7.53s-3.42-9.42-3.42-9.42h0a11.64,11.64,0,0,1,7.9.83l.17.09C389.5,343.3,393,349.54,392.93,354.06Z" style="fill: rgb(124, 58, 237); transform-origin: 385.225px 351.183px;" id="el28yt3pyvmtt" class="animable"></path><path d="M382.76,366.42s-.64.94-4.6,1.29-4.92,3.89-9.41,4.71-5.14.7-7.06-.59c.87-3,3-3.86,5-5.57a9.78,9.78,0,0,0,1.74-1.91,2.9,2.9,0,0,0,.19-.29,6.87,6.87,0,0,1,3.68-2.66h0a11.54,11.54,0,0,1,3.52-.58,9,9,0,0,1,4,.77C382.66,363,382.66,364.77,382.76,366.42Z" style="fill: rgb(124, 58, 237); transform-origin: 372.225px 366.876px;" id="elw4uu7b3hpdp" class="animable"></path><path d="M412,439.69a59.46,59.46,0,0,1-6.8,22.62,6.47,6.47,0,0,1-5.77,3.07h-11.4a6.49,6.49,0,0,1-5.78-3.07,59.62,59.62,0,0,1-6.79-22.62,76.84,76.84,0,0,1-.36-9.42h37.26A76.84,76.84,0,0,1,412,439.69Z" style="fill: rgb(224, 224, 224); transform-origin: 393.73px 447.828px;" id="elpig2sjp7g9p" class="animable"></path><path d="M412.46,439.69a60.92,60.92,0,0,1-7,23.17,6.65,6.65,0,0,1-5.91,3.14H387.91a6.63,6.63,0,0,1-5.91-3.14,61.11,61.11,0,0,1-7-23.17Z" style="fill: rgb(69, 90, 100); transform-origin: 393.73px 452.848px;" id="eljn6qflnv3" class="animable"></path><path d="M405.59,415.89a10.86,10.86,0,0,0-8.5-3.95L397,412a11.11,11.11,0,0,0,3.32,9.71,13.58,13.58,0,0,0,9.14,3.51A17.37,17.37,0,0,0,405.59,415.89Z" style="fill: rgb(124, 58, 237); transform-origin: 403.167px 418.58px;" id="eld36xsg53i65" class="animable"></path><path d="M386.5,419.57a7,7,0,0,0-3.86.52,21,21,0,0,0-7.88,5.29c2.65,1,5.42,1.94,8.21,1.6a7.29,7.29,0,0,0,6.29-5.26C389,420.3,387.79,419.85,386.5,419.57Z" style="fill: rgb(124, 58, 237); transform-origin: 382.01px 423.272px;" id="elaihqdinu3rk" class="animable"></path><path d="M367.81,401.21a5.74,5.74,0,0,0,2.73,2.38,34.59,34.59,0,0,1,3.26,1.53c1.85,1.15,3.19,3.09,4.91,4.45a9.79,9.79,0,0,0,8.59,1.78,11.8,11.8,0,0,0-2.58-9.13,11.21,11.21,0,0,0-8-4,13,13,0,0,0-8.47,2.76" style="fill: rgb(124, 58, 237); transform-origin: 377.611px 404.946px;" id="ele79302lmv8j" class="animable"></path><path d="M395.13,405A9.25,9.25,0,0,1,397.2,396a13.34,13.34,0,0,1,4.9-2.87q2.19-.88,4.41-1.71a1.35,1.35,0,0,1,1.07-.09c.5.26.56,1,.53,1.6a16.67,16.67,0,0,1-1.79,7,9.91,9.91,0,0,1-5,4.68c-2.11.8-4.36,1.7-6.19.3" style="fill: rgb(124, 58, 237); transform-origin: 401.421px 398.45px;" id="elpjsw0tqfosd" class="animable"></path><path d="M386.74,394.06a4.89,4.89,0,0,0-2.18-3.48,8.05,8.05,0,0,0-3.8-1.17,15.8,15.8,0,0,0-9.12,2,29.52,29.52,0,0,0,8.22,4.35,8.34,8.34,0,0,0,3.74.59,3.93,3.93,0,0,0,3.1-2.12" style="fill: rgb(124, 58, 237); transform-origin: 379.19px 392.863px;" id="elawwl1juf8re" class="animable"></path><path d="M386.73,378.67a17.86,17.86,0,0,0-7.45-2.47c.35,3,.93,6.21,2.87,8.37a6.77,6.77,0,0,0,4.4,2.24,7.27,7.27,0,0,0,5-1.43v-.15A10.89,10.89,0,0,0,386.73,378.67Z" style="fill: rgb(124, 58, 237); transform-origin: 385.415px 381.519px;" id="elgiuat2cuihf" class="animable"></path><path d="M400.71,372.51c-1.41,1-1.53,3.39-.71,5a10.66,10.66,0,0,0,3.74,3.69,41.6,41.6,0,0,0,5.77,3.58c2.6,1.24,5.46,1.91,7.77,3.72a21.94,21.94,0,0,0-1.41-10,13,13,0,0,0-6.48-7,8.58,8.58,0,0,0-8.85,1.16" style="fill: rgb(124, 58, 237); transform-origin: 408.431px 379.633px;" id="el0qnfsz0c5zbh" class="animable"></path><path d="M400.83,373.18c0,.05-.69.39-1.73,1.13a14.43,14.43,0,0,0-1.72,1.46,17.32,17.32,0,0,0-1.8,2.14,17.53,17.53,0,0,0-1.41,2.47,16.67,16.67,0,0,0-.84,2.21c-.38,1.29-.49,2.14-.54,2.13a2.43,2.43,0,0,1,0-.6,6,6,0,0,1,.11-.69c.06-.27.11-.58.21-.9a14.09,14.09,0,0,1,.79-2.27,16.59,16.59,0,0,1,1.42-2.52,15.76,15.76,0,0,1,1.85-2.17,13.25,13.25,0,0,1,1.78-1.43,6.39,6.39,0,0,1,.74-.45,3.6,3.6,0,0,1,.58-.3A2,2,0,0,1,400.83,373.18Z" style="fill: rgb(38, 50, 56); transform-origin: 396.801px 378.95px;" id="eljfcm97mdnk" class="animable"></path><path d="M414.16,382.6a3,3,0,0,1-.44-.6c-.27-.39-.67-1-1.19-1.64a27.54,27.54,0,0,0-4.59-4.68,16.56,16.56,0,0,0-3-1.93,6.11,6.11,0,0,0-2.7-.68,4.7,4.7,0,0,0-1.84.34c-.42.18-.63.32-.65.3l.15-.13a3.11,3.11,0,0,1,.46-.27,4.42,4.42,0,0,1,1.88-.45,6.33,6.33,0,0,1,2.8.64,15.51,15.51,0,0,1,3,1.95,24.91,24.91,0,0,1,4.58,4.78c.51.7.88,1.29,1.13,1.71A4,4,0,0,1,414.16,382.6Z" style="fill: rgb(38, 50, 56); transform-origin: 406.955px 377.73px;" id="elwzua6i6yxf" class="animable"></path><path d="M406.38,354.13c0,.05-.72.54-1.84,1.46a27.89,27.89,0,0,0-4,4.05,29.93,29.93,0,0,0-3.14,4.89c-.68,1.34-1,2.22-1.07,2.2a2.56,2.56,0,0,1,.2-.63,15.59,15.59,0,0,1,.71-1.66,26.12,26.12,0,0,1,3.1-5,24.92,24.92,0,0,1,4.09-4,14.65,14.65,0,0,1,1.41-1A3.78,3.78,0,0,1,406.38,354.13Z" style="fill: rgb(38, 50, 56); transform-origin: 401.355px 360.43px;" id="el05292qurzgq8" class="animable"></path><path d="M382.64,343.16s.07,0,.18.1a4.8,4.8,0,0,1,.49.36,14.75,14.75,0,0,1,1.65,1.51,17.85,17.85,0,0,1,3.87,6.49,19.27,19.27,0,0,1,.9,7.69,16.81,16.81,0,0,1-.36,2.33,5.56,5.56,0,0,1-.16.61c0,.14-.06.22-.07.21a7.34,7.34,0,0,1,.13-.85,21.32,21.32,0,0,0,.28-2.32,20.2,20.2,0,0,0-1-7.57,18.36,18.36,0,0,0-5.33-8A5.88,5.88,0,0,1,382.64,343.16Z" style="fill: rgb(38, 50, 56); transform-origin: 386.22px 352.81px;" id="ell6p15ftk9" class="animable"></path><path d="M370.57,364.7a2,2,0,0,1,.37-.45,6.25,6.25,0,0,1,1.21-1,7,7,0,0,1,4.83-1.06,7.31,7.31,0,0,1,4.35,2.55,6.89,6.89,0,0,1,.9,1.33,2.42,2.42,0,0,1,.24.55,17.73,17.73,0,0,0-1.27-1.74,7.47,7.47,0,0,0-4.26-2.4,7.11,7.11,0,0,0-4.7.95A15.23,15.23,0,0,0,370.57,364.7Z" style="fill: rgb(38, 50, 56); transform-origin: 376.52px 364.368px;" id="eln15fu1qywh" class="animable"></path><path d="M391.3,385a37.38,37.38,0,0,1-4.07-2.11,38.38,38.38,0,0,1-4-2.36,36.36,36.36,0,0,1,4.07,2.11A35.87,35.87,0,0,1,391.3,385Z" style="fill: rgb(38, 50, 56); transform-origin: 387.265px 382.765px;" id="el60mm2qsvtpw" class="animable"></path><path d="M375.87,390.72a1.27,1.27,0,0,1,.45-.05,10.28,10.28,0,0,1,1.23,0,17.21,17.21,0,0,1,4,.75,18.19,18.19,0,0,1,3.78,1.68c.45.28.82.52,1.06.7s.37.29.36.31a16.14,16.14,0,0,1-1.51-.83,22.57,22.57,0,0,0-3.76-1.59,21.3,21.3,0,0,0-4-.81A16.6,16.6,0,0,1,375.87,390.72Z" style="fill: rgb(38, 50, 56); transform-origin: 381.31px 392.381px;" id="elb3dtjovkawg" class="animable"></path><path d="M406.41,392.6a3.93,3.93,0,0,1-.53.39c-.34.24-.84.59-1.44,1a33.83,33.83,0,0,0-4.4,4,36.13,36.13,0,0,0-3.7,4.74c-.42.65-.75,1.19-1,1.57a3.07,3.07,0,0,1-.37.57,3.94,3.94,0,0,1,.29-.63c.19-.4.5-1,.91-1.62a30.52,30.52,0,0,1,3.67-4.83,28.56,28.56,0,0,1,4.48-3.92c.61-.43,1.13-.76,1.49-1A2.71,2.71,0,0,1,406.41,392.6Z" style="fill: rgb(38, 50, 56); transform-origin: 400.69px 398.735px;" id="elkvnchrx1qho" class="animable"></path><path d="M371.47,401a5.14,5.14,0,0,1,.77,0c.49,0,1.21,0,2.09.06a19,19,0,0,1,3.1.44A10.94,10.94,0,0,1,381,403a13.18,13.18,0,0,1,2.9,2.75,25.69,25.69,0,0,1,1.88,2.75c.48.82.85,1.49,1.1,2a4,4,0,0,1,.36.75,5.61,5.61,0,0,1-.45-.69c-.27-.45-.66-1.11-1.17-1.91a26.38,26.38,0,0,0-1.9-2.68,13.33,13.33,0,0,0-2.85-2.68,10.88,10.88,0,0,0-3.49-1.51,20.2,20.2,0,0,0-3.06-.49c-.88-.08-1.59-.12-2.09-.16A2.94,2.94,0,0,1,371.47,401Z" style="fill: rgb(38, 50, 56); transform-origin: 379.355px 406.118px;" id="eluggoqeki9lf" class="animable"></path><path d="M389.28,421.54s-.58,0-1.52.12a20.3,20.3,0,0,0-3.62.62,21.3,21.3,0,0,0-3.47,1.29,14.63,14.63,0,0,1-1.4.67s.11-.11.34-.27.56-.36,1-.59a16.64,16.64,0,0,1,3.49-1.38,15.83,15.83,0,0,1,3.67-.55,9,9,0,0,1,1.12,0A1.13,1.13,0,0,1,389.28,421.54Z" style="fill: rgb(38, 50, 56); transform-origin: 384.275px 422.836px;" id="elf9ch0qseuda" class="animable"></path><path d="M407.27,423.74c0,.06-2.44-2.46-5.34-5.64s-5.19-5.79-5.14-5.84,2.44,2.47,5.33,5.64S407.32,423.69,407.27,423.74Z" style="fill: rgb(38, 50, 56); transform-origin: 402.03px 418px;" id="elq26kz8n5b48" class="animable"></path><path d="M397.48,412.28a10.86,10.86,0,0,0-2.12.34,11.19,11.19,0,0,0-1.92,1,3.38,3.38,0,0,1,1.85-1.28A3.14,3.14,0,0,1,397.48,412.28Z" style="fill: rgb(38, 50, 56); transform-origin: 395.46px 412.866px;" id="elvskq3onu5cq" class="animable"></path><path d="M393.75,418.83s-.29-.52-.79-1.3a16.67,16.67,0,0,0-2.25-2.81c-1-1-1.95-1.81-2.64-2.41a7.42,7.42,0,0,1-1.09-1,7.37,7.37,0,0,1,1.2.85,25.16,25.16,0,0,1,2.7,2.36,14.39,14.39,0,0,1,2.24,2.9,10.08,10.08,0,0,1,.5,1A2.22,2.22,0,0,1,393.75,418.83Z" style="fill: rgb(38, 50, 56); transform-origin: 390.365px 415.07px;" id="ell2btmqhii4b" class="animable"></path><path d="M392.75,421.39a3.23,3.23,0,0,1-1.85.34,3.35,3.35,0,0,1-1.82-.5c0-.09.82.17,1.83.21S392.73,421.3,392.75,421.39Z" style="fill: rgb(38, 50, 56); transform-origin: 390.915px 421.481px;" id="el6r2qd7r2zyr" class="animable"></path><path d="M396.53,402.64s-.3.57-.77,1.5a22.94,22.94,0,0,0-1.5,3.79,24.59,24.59,0,0,0-.81,4.05c-.11,1-.13,1.71-.17,1.71a1.52,1.52,0,0,1,0-.46c0-.3,0-.74,0-1.27a19.44,19.44,0,0,1,.74-4.11A18.2,18.2,0,0,1,395.6,404c.26-.46.48-.81.65-1.05A1.63,1.63,0,0,1,396.53,402.64Z" style="fill: rgb(38, 50, 56); transform-origin: 394.896px 408.165px;" id="el269uqxtp4wo" class="animable"></path><path d="M391.18,399.48s-.16-.41-.47-1a8.09,8.09,0,0,0-1.57-2.12,18.8,18.8,0,0,0-2-1.66,4.83,4.83,0,0,1-.85-.69,4.18,4.18,0,0,1,.94.51,12.29,12.29,0,0,1,2.09,1.63,7.36,7.36,0,0,1,1.57,2.24A2.77,2.77,0,0,1,391.18,399.48Z" style="fill: rgb(38, 50, 56); transform-origin: 388.735px 396.745px;" id="elah52d9vn7ao" class="animable"></path><path d="M390.36,375.26s-.36-.65-1-1.66a24.78,24.78,0,0,0-2.65-3.72,25.43,25.43,0,0,0-3.23-3.1c-.9-.7-1.49-1.09-1.47-1.13s.17.06.44.22a11.94,11.94,0,0,1,1.13.75,19.55,19.55,0,0,1,3.32,3.06,21.29,21.29,0,0,1,2.62,3.81c.28.53.49,1,.62,1.27A1.87,1.87,0,0,1,390.36,375.26Z" style="fill: rgb(38, 50, 56); transform-origin: 386.185px 370.451px;" id="eli8pdvm6wolj" class="animable"></path><path d="M409.28,342.56a1.28,1.28,0,0,1-.3.16l-.88.42c-.76.36-1.87.86-3.2,1.59a19.36,19.36,0,0,0-4.31,3.14,23.49,23.49,0,0,0-4,5.43,68.42,68.42,0,0,0-2.94,6.22l-2.24,5.19c-.63,1.45-1.15,2.63-1.53,3.49l-.42.94a1.15,1.15,0,0,1-.17.32,1.55,1.55,0,0,1,.12-.34l.38-1c.36-.86.85-2.06,1.45-3.52l2.19-5.22a66.13,66.13,0,0,1,2.93-6.26,23.51,23.51,0,0,1,4-5.48,18.81,18.81,0,0,1,4.39-3.12c1.34-.71,2.47-1.19,3.24-1.51l.9-.37Z" style="fill: rgb(38, 50, 56); transform-origin: 399.285px 356.01px;" id="elmvy52jpdaio" class="animable"></path><path d="M391.57,331.81a3.85,3.85,0,0,1,.39.73c.24.48.56,1.18.93,2.07a51.37,51.37,0,0,1,2.38,7.16,53.18,53.18,0,0,1,1.31,7.48c.1,1,.15,1.76.17,2.31a5.58,5.58,0,0,1,0,.85,4.59,4.59,0,0,1-.11-.84c0-.55-.13-1.33-.25-2.29a62.75,62.75,0,0,0-1.39-7.43,60.79,60.79,0,0,0-2.29-7.16c-.34-.89-.64-1.61-.85-2.1A6.09,6.09,0,0,1,391.57,331.81Z" style="fill: rgb(38, 50, 56); transform-origin: 394.168px 342.11px;" id="elo7sn1g71f5f" class="animable"></path><path d="M408.42,317a1.35,1.35,0,0,1-.14.31l-.47.85c-.4.73-1,1.78-1.7,3.1-1.43,2.63-3.34,6.31-5.15,10.53-.89,2.12-1.68,4.17-2.32,6.07s-1.11,3.64-1.47,5.12-.57,2.7-.71,3.54l-.15,1a2.07,2.07,0,0,1-.07.34,1.83,1.83,0,0,1,0-.35c0-.22,0-.56.1-1,.11-.85.3-2.08.63-3.57s.81-3.25,1.43-5.16,1.41-4,2.31-6.1A106.93,106.93,0,0,1,406,321.18c.72-1.32,1.35-2.35,1.78-3.06l.5-.82A1.87,1.87,0,0,1,408.42,317Z" style="fill: rgb(38, 50, 56); transform-origin: 402.326px 332.43px;" id="elsnbinw8ztcc" class="animable"></path></g><g id="freepik--Character--inject-110" class="animable" style="transform-origin: 114.389px 283.668px;"><path d="M116.15,432.37l-.69,33.32,43.86,1c-.15-4-22.64-12.45-22.64-12.45l1.38-21.33Z" style="fill: rgb(69, 90, 100); transform-origin: 137.39px 449.53px;" id="elnc7wq3i4mog" class="animable"></path><g id="elc3u84flant8"><g style="opacity: 0.6; transform-origin: 123.56px 453.717px;" class="animable"><path d="M123.17,452.15a1.69,1.69,0,0,0-1.29,1.91,1.72,1.72,0,0,0,2,1.22,1.78,1.78,0,0,0,1.36-2A1.83,1.83,0,0,0,123,452.2" style="fill: rgb(255, 255, 255); transform-origin: 123.56px 453.717px;" id="el3zlc2wm7tro" class="animable"></path></g></g><g id="el75emco9epc6"><g style="opacity: 0.6; transform-origin: 137.416px 464.525px;" class="animable"><path d="M115.46,465.69l.21-3.36,42,2.25s1.93.84,1.68,2.14Z" style="fill: rgb(255, 255, 255); transform-origin: 137.416px 464.525px;" id="el09qbglqgkv1i" class="animable"></path></g></g><path d="M137.4,454.08c0,.2-1.09.26-2.16.89s-1.65,1.46-1.85,1.38.16-1.25,1.47-2S137.45,453.89,137.4,454.08Z" style="fill: rgb(38, 50, 56); transform-origin: 135.37px 455.109px;" id="elhdfta1sdm5" class="animable"></path><path d="M142,456c.05.2-.89.52-1.64,1.36s-1,1.74-1.2,1.73-.32-1.17.64-2.19S142,455.79,142,456Z" style="fill: rgb(38, 50, 56); transform-origin: 140.512px 457.499px;" id="elglrssgaef0i" class="animable"></path><path d="M144.43,461.25c-.2,0-.47-1,.11-2.08s1.59-1.51,1.68-1.34-.55.75-1,1.65S144.64,461.23,144.43,461.25Z" style="fill: rgb(38, 50, 56); transform-origin: 145.209px 459.522px;" id="el4a85upp1wpd" class="animable"></path><path d="M137.14,449.18c-.09.18-1.07-.12-2.28-.07s-2.17.39-2.27.21.82-.88,2.25-.91S137.25,449,137.14,449.18Z" style="fill: rgb(38, 50, 56); transform-origin: 134.865px 448.891px;" id="elbtxfn0ed9yr" class="animable"></path><path d="M136.23,444.24a4.41,4.41,0,0,1-2.2-.06,10.44,10.44,0,0,1-2.28-.73,9.32,9.32,0,0,1-1.24-.66,2.77,2.77,0,0,1-.65-.5.83.83,0,0,1-.07-1.08,1.2,1.2,0,0,1,1-.44,2.82,2.82,0,0,1,.82.13,7.83,7.83,0,0,1,3.34,1.77c1,.92,1.33,1.68,1.25,1.72s-.58-.58-1.59-1.34a9.09,9.09,0,0,0-1.93-1.09,8.86,8.86,0,0,0-1.26-.4c-.46-.12-.85-.13-1,.06s0,.1.05.23a2.19,2.19,0,0,0,.47.37,12.3,12.3,0,0,0,1.15.65,12.16,12.16,0,0,0,2.1.82A15.46,15.46,0,0,1,136.23,444.24Z" style="fill: rgb(38, 50, 56); transform-origin: 132.927px 442.58px;" id="elum1espom81" class="animable"></path><path d="M135.94,444.52c-.08,0-.48-.7-.53-2a6.78,6.78,0,0,1,.36-2.26,6.21,6.21,0,0,1,.6-1.25,1.81,1.81,0,0,1,1.43-1,1,1,0,0,1,.9.61,2.39,2.39,0,0,1,.2.76,4.35,4.35,0,0,1,0,1.4,4.56,4.56,0,0,1-1,2.12c-.88,1.06-1.78,1.28-1.8,1.21s.69-.48,1.37-1.5a4.62,4.62,0,0,0,.75-1.93,4,4,0,0,0,0-1.2c-.06-.44-.22-.8-.4-.76s-.6.31-.78.66a6.57,6.57,0,0,0-.58,1.11,7.45,7.45,0,0,0-.48,2.07C135.85,443.73,136.06,444.49,135.94,444.52Z" style="fill: rgb(38, 50, 56); transform-origin: 137.183px 441.265px;" id="elavxlumzhhcd" class="animable"></path><path d="M82.91,435.13,78.72,468.2l-43.54-5.41c.73-3.9,24.22-9,24.22-9l1.76-21.3Z" style="fill: rgb(69, 90, 100); transform-origin: 59.045px 450.345px;" id="el7adduhibmka" class="animable"></path><g id="ely1j2auf2njm"><g style="opacity: 0.6; transform-origin: 72.5011px 455.172px;" class="animable"><path d="M73.08,453.68a1.7,1.7,0,0,1,1,2.07,1.72,1.72,0,0,1-2.14.92,1.78,1.78,0,0,1-1-2.2,1.82,1.82,0,0,1,2.34-.72" style="fill: rgb(255, 255, 255); transform-origin: 72.5011px 455.172px;" id="eld6gouxjne1v" class="animable"></path></g></g><g id="elrujf4faip5k"><g style="opacity: 0.6; transform-origin: 57.085px 464.56px;" class="animable"><path d="M78.72,468.2l.29-3.35-41.85-3.93s-2,.56-2,1.87Z" style="fill: rgb(255, 255, 255); transform-origin: 57.085px 464.56px;" id="ellu4qif120g9" class="animable"></path></g></g><path d="M58.72,453.5c0,.2,1,.42,2,1.2s1.42,1.69,1.63,1.63,0-1.25-1.16-2.17S58.69,453.31,58.72,453.5Z" style="fill: rgb(38, 50, 56); transform-origin: 60.5707px 454.857px;" id="el315otdwi7s9" class="animable"></path><path d="M53.93,454.72c-.07.18.81.64,1.43,1.58s.72,1.87.93,1.88.49-1.1-.31-2.26S54,454.52,53.93,454.72Z" style="fill: rgb(38, 50, 56); transform-origin: 55.22px 456.418px;" id="elkvht3o5zlsc" class="animable"></path><path d="M50.71,459.56c.19.07.61-.9.2-2.07s-1.36-1.73-1.47-1.57.44.82.76,1.78S50.5,459.51,50.71,459.56Z" style="fill: rgb(38, 50, 56); transform-origin: 50.2546px 457.728px;" id="elr79rog8gvw" class="animable"></path><path d="M59.69,448.69c.06.2,1.07,0,2.27.27s2.08.7,2.21.54-.68-1-2.09-1.24S59.6,448.52,59.69,448.69Z" style="fill: rgb(38, 50, 56); transform-origin: 61.9342px 448.865px;" id="elirzfv9s16i" class="animable"></path><path d="M61.32,443.94a4.37,4.37,0,0,0,2.18.26,10.74,10.74,0,0,0,2.36-.38,11.18,11.18,0,0,0,1.33-.47,3,3,0,0,0,.72-.41.84.84,0,0,0,.22-1.06,1.21,1.21,0,0,0-.87-.57,3.28,3.28,0,0,0-.83,0,8.38,8.38,0,0,0-1.41.28,7.63,7.63,0,0,0-2.16,1c-1.12.76-1.56,1.47-1.49,1.52s.66-.49,1.77-1.09a9,9,0,0,1,2.07-.8,8.61,8.61,0,0,1,1.3-.21c.47-.05.87,0,1,.2s0,.11-.07.22a2.32,2.32,0,0,1-.53.3,12,12,0,0,1-1.23.48,13,13,0,0,1-2.2.5A14.38,14.38,0,0,0,61.32,443.94Z" style="fill: rgb(38, 50, 56); transform-origin: 64.7755px 442.762px;" id="el5o3eeym7dap" class="animable"></path><path d="M61.56,444.26c.07,0,.58-.63.82-1.92a6.56,6.56,0,0,0,0-2.29,6.21,6.21,0,0,0-.4-1.32,1.81,1.81,0,0,0-1.27-1.22,1,1,0,0,0-1,.46,2.62,2.62,0,0,0-.31.73,4.24,4.24,0,0,0-.17,1.39,4.7,4.7,0,0,0,.67,2.25c.72,1.17,1.58,1.52,1.61,1.45a14.61,14.61,0,0,1-1.14-1.68,4.56,4.56,0,0,1-.46-2,4.16,4.16,0,0,1,.19-1.19c.12-.42.34-.76.5-.69s.55.4.68.77a6.46,6.46,0,0,1,.41,1.19,7.2,7.2,0,0,1,.17,2.1C61.76,443.49,61.45,444.21,61.56,444.26Z" style="fill: rgb(38, 50, 56); transform-origin: 60.8533px 440.879px;" id="elcwti8czxjp9" class="animable"></path><path d="M154.2,255.39,81.88,257.7s-16.09,107.48-15.65,115l-9.92,78,28.88,1S89.73,426.34,92.9,409c2.11-11.51,6-28.41,7-38s15.44-75.78,15.44-75.78,1.25,77,1.28,80.17-3.34,76.15-3.34,76.15H142c1.49-13.16,5-65.86,5.76-76.51,1.37-19.22,8.1-74.53,8.72-88.41S154.2,255.39,154.2,255.39Z" style="fill: rgb(38, 50, 56); transform-origin: 106.438px 353.545px;" id="elnk902rma8sn" class="animable"></path><path d="M92.86,266.93a11.67,11.67,0,0,1-.35-3.35,11.23,11.23,0,0,1,.15-3.36,12,12,0,0,1,.35,3.35A11.63,11.63,0,0,1,92.86,266.93Z" style="fill: rgb(69, 90, 100); transform-origin: 92.758px 263.575px;" id="eljyghh914h2k" class="animable"></path><path d="M95.5,266.15a16,16,0,0,1,.53-5.68,8.54,8.54,0,0,1,0,2.86A8.8,8.8,0,0,1,95.5,266.15Z" style="fill: rgb(69, 90, 100); transform-origin: 95.7956px 263.31px;" id="el6zyhwzbkiw" class="animable"></path><path d="M139.63,266.15a12.13,12.13,0,0,1,0-4.9,12.13,12.13,0,0,1,0,4.9Z" style="fill: rgb(69, 90, 100); transform-origin: 139.63px 263.7px;" id="elb2ze70fre6e" class="animable"></path><path d="M142.47,267.44a6.41,6.41,0,0,1-.28-3.14,6.5,6.5,0,0,1,.79-3.05,22.59,22.59,0,0,1-.3,3.09A23.93,23.93,0,0,1,142.47,267.44Z" style="fill: rgb(69, 90, 100); transform-origin: 142.544px 264.345px;" id="eloloslm51tye" class="animable"></path><path d="M119.43,293.52a6.66,6.66,0,0,1,.17-1.26c.15-.9.34-2,.58-3.4.47-2.87,1-6.85,1.39-11.28s.45-8.44.44-11.35c0-1.38,0-2.54,0-3.45a7.51,7.51,0,0,1,0-1.27,5.77,5.77,0,0,1,.16,1.26c.07.82.14,2,.18,3.45a102,102,0,0,1-.29,11.4,101.27,101.27,0,0,1-1.55,11.3c-.28,1.43-.53,2.59-.73,3.38A6.92,6.92,0,0,1,119.43,293.52Z" style="fill: rgb(69, 90, 100); transform-origin: 120.914px 277.515px;" id="elhsktobpjh5" class="animable"></path><path d="M117,262.32a2.63,2.63,0,0,0-1.45.81,2,2,0,0,0-.47,1.61,1.88,1.88,0,0,0,3.27.63,2.06,2.06,0,0,0,.16-1.68,2.58,2.58,0,0,0-1-1.28s.19,0,.48.12a2.13,2.13,0,0,1,.9,1,2.33,2.33,0,0,1-.1,2.05,2.3,2.3,0,0,1-4.11-.79,2.28,2.28,0,0,1,.66-1.93,2.08,2.08,0,0,1,1.21-.63C116.79,262.23,117,262.3,117,262.32Z" style="fill: rgb(69, 90, 100); transform-origin: 116.87px 264.389px;" id="el2ysb1onrsqz" class="animable"></path><path d="M85.47,380.91a62.29,62.29,0,0,1-7.31-2.73A59.53,59.53,0,0,1,71,375a62.29,62.29,0,0,1,7.31,2.73A59.53,59.53,0,0,1,85.47,380.91Z" style="fill: rgb(69, 90, 100); transform-origin: 78.235px 377.955px;" id="el3eextsw9xts" class="animable"></path><path d="M136.65,166.54s10.32,3.11,11.68,8.73c1.66,6.85,12.2,46.43,12.2,46.43l20.92-14.59,8,8.87s-19.09,36.48-29.71,36.47c-8.87,0-16.66-6.79-16.66-6.79l-11.38-32.89Z" style="fill: rgb(124, 58, 237); transform-origin: 160.575px 209.495px;" id="el0idbnvx31vtl" class="animable"></path><path d="M70.2,173.48l-6.31,4.25,17.31,69-2.41,26.77c4.55,4,17.31,7.39,39.12,6.16a98.18,98.18,0,0,0,38-10.15l-4.36-36.64-13.87-44.65-1-21.65-22.16-4.49L89.22,164.2Z" style="fill: rgb(124, 58, 237); transform-origin: 109.9px 220.998px;" id="el00kdg5m9ihup8" class="animable"></path><path d="M137.52,221.7c-.14,0-.27-8.6-.29-19.21s.1-19.2.25-19.2.28,8.59.29,19.2S137.67,221.7,137.52,221.7Z" style="fill: rgb(38, 50, 56); transform-origin: 137.499px 202.495px;" id="elxiibrvpumks" class="animable"></path><path d="M87.05,108.71c.21-3.75,2.52-6,5.74-8a11.69,11.69,0,0,1,10.8-.48c2.27,1.07,4.25,2.92,6.74,3.24,4.09.52,8-3.27,12-2.32a5.33,5.33,0,0,1-.39,10.45c2.69.39,4.2,3.78,3.21,6.3s-3.81,4-6.52,4a15,15,0,0,1-7.66-2.41c-2.34-1.36-4.53-3-7-4.17a11.59,11.59,0,0,0-7.87-1.15c-3.55.94-6.06,4.29-7,7.84s-.53,7.3,0,10.93,1.25,7.29.9,10.95a1.36,1.36,0,0,1-.51,1.12c-.55.3-1.17-.21-1.57-.69a53.67,53.67,0,0,1-10.13-18.34c-1.24-3.89-1.92-7.68-.43-11.48s6.49-7.42,9.64-5.87" style="fill: rgb(38, 50, 56); transform-origin: 101.471px 122.117px;" id="el2b3uh7qka4w" class="animable"></path><path d="M83.6,126.8l6,37c1.12,6.91,5.61,13.59,16.45,11.32h0c9.26-2.68,8.58-9.34,7.37-17.55h0s10.18-2.65,9.27-13c-.44-5-2.19-15.24-3.88-24.48a19.36,19.36,0,0,0-21-15.78l-1,.1C86.11,106.11,81.59,116.16,83.6,126.8Z" style="fill: rgb(255, 190, 157); transform-origin: 102.941px 139.891px;" id="ellv1uc152h3" class="animable"></path><path d="M113.41,157.57a25.09,25.09,0,0,1-13.87-2.63s4.06,7.7,14.29,5.73Z" style="fill: rgb(235, 153, 110); transform-origin: 106.685px 157.966px;" id="el08ivd9hcyxy" class="animable"></path><path d="M116.62,130.93a1.49,1.49,0,0,1-1.27,1.64,1.43,1.43,0,0,1-1.66-1.18,1.49,1.49,0,0,1,1.27-1.64A1.43,1.43,0,0,1,116.62,130.93Z" style="fill: rgb(38, 50, 56); transform-origin: 115.155px 131.16px;" id="el53km43x0kbe" class="animable"></path><path d="M117.09,125.38c-.16.21-1.36-.5-3-.34s-2.68,1.08-2.87.9.06-.45.53-.87a4,4,0,0,1,2.27-.95,3.86,3.86,0,0,1,2.38.51C117,125,117.17,125.28,117.09,125.38Z" style="fill: rgb(38, 50, 56); transform-origin: 114.132px 125.03px;" id="elhdez6iol5fc" class="animable"></path><path d="M101.88,132.36a1.49,1.49,0,0,1-1.27,1.63A1.42,1.42,0,0,1,99,132.81a1.47,1.47,0,0,1,1.27-1.63A1.42,1.42,0,0,1,101.88,132.36Z" style="fill: rgb(38, 50, 56); transform-origin: 100.439px 132.585px;" id="elxz997euqdhl" class="animable"></path><path d="M101.5,127.25c-.17.21-1.37-.51-3-.34s-2.67,1.07-2.87.9.06-.45.53-.87a4.12,4.12,0,0,1,2.27-1,4,4,0,0,1,2.38.51C101.38,126.82,101.58,127.15,101.5,127.25Z" style="fill: rgb(38, 50, 56); transform-origin: 98.5394px 126.876px;" id="eln44h6c8osfm" class="animable"></path><path d="M108.45,138.46a10.69,10.69,0,0,1,2.54-.73c.4-.08.77-.2.81-.48a2,2,0,0,0-.39-1.18l-1.51-3c-2.11-4.23-3.68-7.73-3.51-7.82s2,3.28,4.13,7.52l1.46,3a2.4,2.4,0,0,1,.38,1.57,1,1,0,0,1-.61.66,2.5,2.5,0,0,1-.68.17A10.43,10.43,0,0,1,108.45,138.46Z" style="fill: rgb(38, 50, 56); transform-origin: 109.375px 131.855px;" id="ela7154gdm8sl" class="animable"></path><path d="M101.28,121c-.11.44-1.72.4-3.56.81s-3.3,1.07-3.59.71c-.13-.17.09-.61.66-1.09a6.19,6.19,0,0,1,2.59-1.21,6.12,6.12,0,0,1,2.86,0C101,120.46,101.33,120.76,101.28,121Z" style="fill: rgb(38, 50, 56); transform-origin: 97.6894px 121.337px;" id="elzdt06c9649" class="animable"></path><path d="M116.05,120.84c-.25.39-1.38.12-2.7.24s-2.41.48-2.7.13c-.13-.17,0-.55.46-.94a3.92,3.92,0,0,1,4.35-.3C116,120.29,116.15,120.65,116.05,120.84Z" style="fill: rgb(38, 50, 56); transform-origin: 113.341px 120.405px;" id="elw1sv0abc9so" class="animable"></path><path d="M85.21,134.38c-.18-.06-7.32-1.39-6.38,5.66s7.82,4.65,7.81,4.45S85.21,134.38,85.21,134.38Z" style="fill: rgb(255, 190, 157); transform-origin: 82.6924px 139.643px;" id="el6xyt0kd2me9" class="animable"></path><path d="M84.13,142.11s-.11.1-.31.22a1.22,1.22,0,0,1-.91.14,3,3,0,0,1-1.77-2.54,4,4,0,0,1,.11-1.8,1.41,1.41,0,0,1,.8-1.07.63.63,0,0,1,.76.24c.13.19.1.34.14.34s.13-.14,0-.42a.75.75,0,0,0-.34-.4.88.88,0,0,0-.7-.09A1.74,1.74,0,0,0,80.81,138a4.22,4.22,0,0,0-.16,2c.23,1.42,1.14,2.65,2.19,2.81a1.31,1.31,0,0,0,1.1-.34C84.14,142.28,84.15,142.12,84.13,142.11Z" style="fill: rgb(235, 153, 110); transform-origin: 82.3666px 139.76px;" id="el9f7hjkjv6n" class="animable"></path><path d="M118,110.43a13.44,13.44,0,0,0-4.85-4.56,23.09,23.09,0,0,0-13.84-3.44,18.86,18.86,0,0,0-12.66,6.3,19.9,19.9,0,0,0-4.44,10.54,29.36,29.36,0,0,0,1.09,11.48,8.7,8.7,0,0,0,2.38,4.42c.8.69,2.11,1.07,2.88.34a2.87,2.87,0,0,0,.66-1.71c.81-5.6,1.56-11.6-1-16.66a16.21,16.21,0,0,1,4.42-5A8.47,8.47,0,0,1,99,110.65c3.26.65,5.51,3.53,8.24,5.41a15,15,0,0,0,13.57,1.65Z" style="fill: rgb(38, 50, 56); transform-origin: 101.432px 119.139px;" id="elrk1qfz2r37o" class="animable"></path><path d="M109.85,142.75a6.72,6.72,0,0,1-.53,1.94,2.35,2.35,0,0,1-1.45,1.31,2.16,2.16,0,0,1-2-.59,3.46,3.46,0,0,1-.91-1.91c-.1-.64,0-1.46.64-1.67a1.8,1.8,0,0,1,.8,0l3.6.65" style="fill: rgb(235, 153, 110); transform-origin: 107.463px 143.918px;" id="elplto3ku9t" class="animable"></path><path d="M109.1,145.76a5.12,5.12,0,0,1-1.82.15,2.62,2.62,0,0,1-1.59-.94,2.72,2.72,0,0,1-.49-2.16,2.53,2.53,0,0,1,.18-.55c.1-.17.08-.16.23-.17s.38.07.57.1l.59.11c.77.14,1.47.25,2,.34a6.29,6.29,0,0,0,1.92.17,6.15,6.15,0,0,0-1.83-.59l-2-.47-.58-.12a6.43,6.43,0,0,0-.66-.13.78.78,0,0,0-.49.12.91.91,0,0,0-.3.37,2.78,2.78,0,0,0-.25.7,3.18,3.18,0,0,0,.66,2.63,2.85,2.85,0,0,0,2,1,2.77,2.77,0,0,0,1.45-.24C109,145.93,109.12,145.79,109.1,145.76Z" style="fill: rgb(38, 50, 56); transform-origin: 107.605px 143.916px;" id="el1cu02tepasy" class="animable"></path><path d="M124.68,102.62s.07.15.14.46a4.49,4.49,0,0,1,.05,1.39,6.49,6.49,0,0,1-2.56,4.33,9.61,9.61,0,0,1-7.3,1.5c-2.86-.39-5.72-1.77-8.71-3s-6.06-2.06-8.82-1.56a11.12,11.12,0,0,0-6.28,3.6,14.91,14.91,0,0,0-2.69,4.2c-.45,1.1-.61,1.75-.65,1.74a1.43,1.43,0,0,1,.09-.48,10.57,10.57,0,0,1,.4-1.32A14.07,14.07,0,0,1,91,109.12a11.35,11.35,0,0,1,6.45-3.8c2.88-.55,6.06.31,9.06,1.55s5.83,2.61,8.6,3a9.43,9.43,0,0,0,7.05-1.34,6.43,6.43,0,0,0,2.57-4.09A6.84,6.84,0,0,0,124.68,102.62Z" style="fill: rgb(69, 90, 100); transform-origin: 106.381px 108.95px;" id="el1u5znnaro4kj" class="animable"></path><path d="M78.4,124.09a5,5,0,0,1,.27-2,12.28,12.28,0,0,1,4-6.13,4.52,4.52,0,0,1,1.94-1,2.4,2.4,0,0,1,1.47.17c.32.16.43.33.42.35a2.72,2.72,0,0,0-1.82-.2,8.16,8.16,0,0,0-3.48,2.87A14.27,14.27,0,0,0,79,122.24C78.59,123.36,78.47,124.1,78.4,124.09Z" style="fill: rgb(69, 90, 100); transform-origin: 82.4444px 119.502px;" id="elnwf81fpf64" class="animable"></path><path d="M80.26,130.19a5.9,5.9,0,0,1,.4-1.94A13.37,13.37,0,0,1,83,124.08a13,13,0,0,1,3.69-3,5.26,5.26,0,0,1,1.84-.74,17.7,17.7,0,0,1-1.68,1,15.66,15.66,0,0,0-3.5,3.07,15.39,15.39,0,0,0-2.4,4A15.29,15.29,0,0,1,80.26,130.19Z" style="fill: rgb(69, 90, 100); transform-origin: 84.395px 125.265px;" id="ela4zsi9sous" class="animable"></path><rect x="98.39" y="188.19" width="89.25" height="75.26" rx="15.23" style="fill: rgb(250, 250, 250); transform-origin: 143.015px 225.82px;" id="ele58vhfqwure" class="animable"></rect><path d="M172.41,263.45l.78-.07a17.18,17.18,0,0,0,2.27-.29c.48-.14,1-.26,1.62-.45a14.66,14.66,0,0,0,1.88-.77,15,15,0,0,0,7.52-8.19A12.68,12.68,0,0,0,187,252a11.81,11.81,0,0,0,.34-1.81,29.4,29.4,0,0,0,.14-3.92c0-5.44,0-11.64,0-18.49s0-14.35,0-22.41a20.14,20.14,0,0,0-.59-6,14.92,14.92,0,0,0-2.87-5.49,15.14,15.14,0,0,0-11.41-5.42l-58.93,0a15.29,15.29,0,0,0-7.33,1.92,14.88,14.88,0,0,0-5.39,5.18,14.63,14.63,0,0,0-1.57,3.38,15.13,15.13,0,0,0-.65,3.64c-.08,2.48,0,5,0,7.44,0,9.86,0,19.37,0,28.43v6.71A27.48,27.48,0,0,0,99,251.6a15.09,15.09,0,0,0,7.1,9.61,14.87,14.87,0,0,0,5.5,1.88,54.29,54.29,0,0,0,5.69.16h10.75l32.45.09,8.83,0,2.29,0,.78,0s-.26,0-.78,0l-2.29,0-8.83.05-32.45.08-10.75,0a53,53,0,0,1-5.74-.15,15.26,15.26,0,0,1-5.66-1.91,15.57,15.57,0,0,1-7.34-9.89,28.13,28.13,0,0,1-.41-6.55c0-2.21,0-4.44,0-6.71,0-9.06,0-18.57,0-28.43,0-2.47,0-4.93,0-7.47a16.3,16.3,0,0,1,.66-3.77,15.91,15.91,0,0,1,1.63-3.5,15.43,15.43,0,0,1,5.58-5.36,15.72,15.72,0,0,1,7.58-2l58.94,0a15.61,15.61,0,0,1,11.75,5.61,15.29,15.29,0,0,1,3,5.66,20.86,20.86,0,0,1,.59,6.15c0,8.06,0,15.56,0,22.41s0,13.05,0,18.49a28.42,28.42,0,0,1-.16,3.95,12.22,12.22,0,0,1-.36,1.84,13.16,13.16,0,0,1-.56,1.71A15.09,15.09,0,0,1,179,262a15.66,15.66,0,0,1-1.9.76c-.59.18-1.15.29-1.64.42a13.37,13.37,0,0,1-2.29.24Z" style="fill: rgb(38, 50, 56); transform-origin: 142.999px 225.61px;" id="elr36m8kz7i4" class="animable"></path><path d="M187.64,225.82a.86.86,0,0,1-.09.24c-.06.15-.19.37-.35.66a14.53,14.53,0,0,1-1.75,2.28,20.48,20.48,0,0,1-9.06,5.28,33.26,33.26,0,0,1-7.2,1.27c-1.31,0-2.67.15-4.07,0a37.79,37.79,0,0,1-4.31-.3l-2.22-.28c-.75-.14-1.49-.32-2.25-.48l-1.14-.25c-.38-.1-.75-.23-1.13-.34-.75-.25-1.53-.46-2.28-.74a46.31,46.31,0,0,1-8.84-4.55c-2.88-1.82-5.57-3.75-8.36-5.29a29.75,29.75,0,0,0-8.52-3.23,34.92,34.92,0,0,0-15.38.74,29.27,29.27,0,0,0-9.37,4.56,24.59,24.59,0,0,0-2.2,1.82c-.48.44-.71.7-.73.69a.88.88,0,0,1,.15-.21l.5-.56a19.41,19.41,0,0,1,2.16-1.9,28.24,28.24,0,0,1,9.39-4.75,34.86,34.86,0,0,1,15.57-.86,29.67,29.67,0,0,1,8.68,3.26c2.82,1.55,5.53,3.48,8.39,5.3a46.45,46.45,0,0,0,8.74,4.5c.74.28,1.5.49,2.24.74.38.11.74.24,1.12.34l1.12.25c.75.16,1.48.34,2.22.48l2.2.29a42.1,42.1,0,0,0,4.26.31c1.39.11,2.73,0,4,0a33.26,33.26,0,0,0,7.12-1.19,20.72,20.72,0,0,0,9-5.07,15.42,15.42,0,0,0,1.81-2.2c.18-.27.32-.48.4-.63S187.63,225.81,187.64,225.82Z" style="fill: rgb(38, 50, 56); transform-origin: 143.015px 227.366px;" id="el3w6a8vu1uf" class="animable"></path><circle cx="169.17" cy="208.94" r="7.3" style="fill: rgb(69, 90, 100); transform-origin: 169.17px 208.94px;" id="elaffgaekujff" class="animable"></circle><path d="M70.39,173.48l-5.52,3.72A20.79,20.79,0,0,0,55.74,192c-1.88,16.32-3.37,45.77.33,51.88,5,8.25,58.26,10.94,58.26,10.94l3.58-16.51-43.46-10L75,214.64Z" style="fill: rgb(124, 58, 237); transform-origin: 85.8503px 214.15px;" id="el39qvd9rr74" class="animable"></path><path d="M75,197.14a2.59,2.59,0,0,1,0,.58q0,.61,0,1.68c0,1.48-.07,3.64-.07,6.4,0,5.51.37,13.43,0,23l-.18-.23,38.93,8.6,4.3,1,.27.06-.06.26c-1.25,5.76-2.46,11.31-3.59,16.51l0,.21h-.21a274.2,274.2,0,0,1-35.84-3.81c-4.39-.76-7.86-1.48-10.23-2-1.19-.26-2.1-.48-2.71-.64l-.7-.19a.74.74,0,0,1-.23-.08l.24,0,.71.14,2.72.56c2.38.48,5.86,1.15,10.25,1.87a289.2,289.2,0,0,0,35.81,3.6l-.26.21,3.56-16.51.21.32-4.3-1L74.64,229l-.19,0v-.19c.45-9.52.12-17.43.23-22.95,0-2.77.12-4.93.18-6.4,0-.72.07-1.27.1-1.68A3.8,3.8,0,0,1,75,197.14Z" style="fill: rgb(38, 50, 56); transform-origin: 91.465px 226.175px;" id="el6x582f0m7ai" class="animable"></path><path d="M123.52,241.52a12.47,12.47,0,0,1,4.06-3.58c2.73-1.55,8.16-2.08,9.22-3.88s2.68.09,1.74,2.41c-.6,1.48-4.58,4.87-4.58,4.87s3.53,1.68,6.29.76,11.94-1.73,12.62-.33c.77,1.58-1.59,1.58-2.68,1.93-.82.27-7.16,2-7.16,2s11.54,1.93,12.87,2.77-.44,2-1.17,1.85c-.46-.07.79,1.45-.86,2.46-1.12.69-6,.77-7.32.52l-2.67-.5,7.92,2.49s1.13,1.56-1,1.84c-.92.12-26.15-1.32-28.08-1.6-3.32-.47-8-1.32-8-1.32l2.7-13.65Z" style="fill: rgb(255, 190, 157); transform-origin: 135.551px 245.241px;" id="elzwhgfjc9k5" class="animable"></path><path d="M188.1,222.72l-.15-5.33s-6.55-5.93-7-8.52l-.37-1.47s-3.59-2.48-2.66-4.81c-.68-1.61-.56-2.67.89-2.85,0,0-2.74-1.82-.91-4.26S190,202.1,190,202.1s5.41,3.26,3,5.7c0,0,.16,2.89-1.21,4.57,0,0,2.13,3-.15,5Z" style="fill: rgb(255, 190, 157); transform-origin: 185.444px 208.891px;" id="elnhsm7dexzx" class="animable"></path><path d="M190.3,211.57s.21,0,.55.06a2.46,2.46,0,0,1,1.2,1,3.41,3.41,0,0,1,.58,2.18,7,7,0,0,1-.76,2.63,17.33,17.33,0,0,1-2.72,4.07,5.56,5.56,0,0,1-1.5,1.35,31.42,31.42,0,0,0,3.78-5.62,7,7,0,0,0,.76-2.45,3.17,3.17,0,0,0-.43-2A3,3,0,0,0,190.3,211.57Z" style="fill: rgb(235, 153, 110); transform-origin: 190.145px 217.215px;" id="el4dx0vyya4pw" class="animable"></path><path d="M188.76,206.24c-.11.1-2.06-1.83-4.86-3.69s-5.32-3-5.26-3.09a5.92,5.92,0,0,1,1.71.59,24.25,24.25,0,0,1,3.82,2.1,24.59,24.59,0,0,1,3.4,2.73A6,6,0,0,1,188.76,206.24Z" style="fill: rgb(235, 153, 110); transform-origin: 183.699px 202.852px;" id="elpyvmjedke8i" class="animable"></path><path d="M188,209.14c-.09.11-2.17-1.6-4.95-3.4s-5.18-3-5.12-3.15a20.55,20.55,0,0,1,5.38,2.75A21,21,0,0,1,188,209.14Z" style="fill: rgb(235, 153, 110); transform-origin: 182.964px 205.868px;" id="elsto4vjld3mp" class="animable"></path><path d="M191.31,205.66c0-.12.94.15,1.49,1.12s.34,1.89.21,1.85-.15-.81-.62-1.62S191.25,205.79,191.31,205.66Z" style="fill: rgb(235, 153, 110); transform-origin: 192.233px 207.132px;" id="elck8tp0dgwxv" class="animable"></path><path d="M185.79,212.05a18.29,18.29,0,0,1-2.56-2.17,18.52,18.52,0,0,1-2.48-2.28,8.75,8.75,0,0,1,2.79,1.92A9,9,0,0,1,185.79,212.05Z" style="fill: rgb(235, 153, 110); transform-origin: 183.27px 209.825px;" id="elso24gozlzq" class="animable"></path></g><g id="freepik--Icon--inject-110" class="animable animator-active" style="transform-origin: 159.32px 91.8px;"><circle cx="204.89" cy="141.7" r="3.56" style="fill: rgb(124, 58, 237); transform-origin: 204.89px 141.7px;" id="elioscg74kzz" class="animable"></circle><path d="M205.05,140.79a10.71,10.71,0,0,1-8.23-3.63c-7.65-8.41-5.85-28.4-5.77-29.25,0-8.25-2.37-14.61-7-18.85-7.45-6.77-18.32-5.81-18.43-5.8l-43.12-.36v-1l43.06.37c.41,0,11.37-1,19.15,6,4.89,4.44,7.37,11,7.37,19.65,0,.25-1.84,20.45,5.51,28.53a9.74,9.74,0,0,0,7.49,3.3Z" style="fill: rgb(124, 58, 237); transform-origin: 163.79px 111.346px;" id="elyz7kkeml16" class="animable"></path><rect x="110.19" y="38.34" width="51.17" height="51.17" rx="7.81" style="fill: rgb(124, 58, 237); transform-origin: 135.775px 63.925px;" id="elk83nvkylfl" class="animable"></rect><path d="M138.24,64.37a7,7,0,0,0,4.17-6.46,6.57,6.57,0,1,0-13.11-.06,7,7,0,0,0,4.18,6.52c-10.08,1.52-9.63,12.48-9.63,12.48l23.84.11S148.24,65.88,138.24,64.37Z" style="fill: rgb(255, 255, 255); transform-origin: 135.771px 63.9137px;" id="elbqfu4cb5aie" class="animable"></path></g><g id="freepik--Map--inject-110" class="animable" style="transform-origin: 379.295px 225.388px;"><path d="M290.62,165.64a3.06,3.06,0,1,1-3.05-3.06A3.05,3.05,0,0,1,290.62,165.64Z" style="fill: rgb(38, 50, 56); transform-origin: 287.56px 165.64px;" id="ely8901vo1sv" class="animable"></path><path d="M393.19,251.61l-2.47-65.24c0-11.34-7.7-20.56-17.16-20.56H289.39v-1h84.17c10,0,18.16,9.66,18.16,21.54l2.47,65.22Z" style="fill: rgb(38, 50, 56); transform-origin: 341.79px 208.21px;" id="elyssgia2u0w" class="animable"></path><rect x="328.53" y="186.91" width="145.34" height="101.19" rx="12.58" style="fill: rgb(250, 250, 250); transform-origin: 401.2px 237.505px;" id="ela8cohoad2y" class="animable"></rect><path d="M461.28,288.1a13.52,13.52,0,0,0,4.66-1,12.64,12.64,0,0,0,7.76-10.41c.11-1.47,0-3.06.05-4.71s0-3.39,0-5.2c0-3.63,0-7.57,0-11.81,0-8.47,0-18.12,0-28.78q0-8,0-16.74v-8.91a14.32,14.32,0,0,0-.49-4.47,12.33,12.33,0,0,0-9.88-8.81,32.35,32.35,0,0,0-4.85-.17H432.86l-91.74,0A12.34,12.34,0,0,0,331,192.46a12.39,12.39,0,0,0-2.09,5.44,20.57,20.57,0,0,0-.11,2.95v3q0,11.88,0,23.4c0,15.35,0,30.15,0,44.26v2.63c0,.88,0,1.75.06,2.6a12.13,12.13,0,0,0,1.5,4.82,12.45,12.45,0,0,0,7.69,5.93,18.07,18.07,0,0,0,4.88.41h14.46l34.89,0,50.51.08,13.73.05,3.58,0c.8,0,1.21,0,1.21,0l-1.21,0-3.58,0-13.73.05-50.51.09-34.89,0H342.9a18.46,18.46,0,0,1-5-.42,12.86,12.86,0,0,1-8-6.14,12.67,12.67,0,0,1-1.57-5c-.06-.89-.07-1.77-.06-2.64v-2.63c0-14.11,0-28.91,0-44.26V200.85a22,22,0,0,1,.12-3,12.85,12.85,0,0,1,2.18-5.66,12.83,12.83,0,0,1,10.55-5.52l91.74,0h25.58a33.74,33.74,0,0,1,4.92.19A12.79,12.79,0,0,1,473.58,196a14.7,14.7,0,0,1,.49,4.59v8.91q0,8.73,0,16.74c0,10.66,0,20.31,0,28.78q0,6.36,0,11.81c0,1.81,0,3.55,0,5.2s0,3.23-.08,4.73a12.68,12.68,0,0,1-3.18,7.18,12.33,12.33,0,0,1-4.74,3.3,12.62,12.62,0,0,1-3.48.83C461.69,288.1,461.28,288.1,461.28,288.1Z" style="fill: rgb(38, 50, 56); transform-origin: 401.175px 237.423px;" id="el1pz3j3x55s6i" class="animable"></path><path d="M369.73,192H338.39a4.54,4.54,0,0,0-4.54,4.54v51H383Z" style="fill: rgb(69, 90, 100); transform-origin: 358.425px 219.77px;" id="elpvboqeo22o" class="animable"></path><polygon points="374.12 191.95 388.46 247.48 444.44 247.48 427.1 191.95 374.12 191.95" style="fill: rgb(124, 58, 237); transform-origin: 409.28px 219.715px;" id="ela67u3n0e9c6" class="animable"></polygon><path d="M433.71,192l11.11,34.6,22.55-30.07h0a4.53,4.53,0,0,0-4.53-4.53Z" style="fill: rgb(224, 224, 224); transform-origin: 450.54px 209.3px;" id="elq866djuizz" class="animable"></path><path d="M467.37,202.57l-20.9,28.92L462.84,281h0a4.53,4.53,0,0,0,4.53-4.53Z" style="fill: rgb(69, 90, 100); transform-origin: 456.92px 241.785px;" id="eldl175c0axwc" class="animable"></path><polygon points="456.3 280.99 446.71 250.79 376.5 251.85 364.05 281.26 456.3 280.99" style="fill: rgb(38, 50, 56); transform-origin: 410.175px 266.025px;" id="eltvde42jo1n" class="animable"></polygon><path d="M359,281l13-29.14H333.85v24.6a4.54,4.54,0,0,0,4.54,4.54Z" style="fill: rgb(224, 224, 224); transform-origin: 352.925px 266.43px;" id="elowl4dcn0uzi" class="animable"></path><g id="ellixlc79mw5r"><g style="opacity: 0.3; transform-origin: 405.815px 220.975px;" class="animable"><path d="M414.58,221c0,1.08-3.92,1.95-8.76,1.95s-8.77-.87-8.77-1.95,3.93-2,8.77-2S414.58,220,414.58,221Z" id="el7ivyzkc93tr" class="animable" style="transform-origin: 405.815px 220.975px;"></path></g></g><path d="M422.34,195.76a16.53,16.53,0,1,0-30.77,8.35h0l.05.07c.63,1.06,1.43,1.83,2.23,2.95l9.59,12.71a3,3,0,0,0,4.77,0l9.43-12.5a35.28,35.28,0,0,0,2.41-3.18l0,0h0A16.43,16.43,0,0,0,422.34,195.76ZM405.82,203a7.28,7.28,0,1,1,7.27-7.27A7.28,7.28,0,0,1,405.82,203Z" style="fill: rgb(69, 90, 100); transform-origin: 405.81px 200.103px;" id="el4hb6qdfj4a6" class="animable"></path></g><defs>     <filter id="active" height="200%">         <feMorphology in="SourceAlpha" result="DILATED" operator="dilate" radius="2"></feMorphology>                <feFlood flood-color="#32DFEC" flood-opacity="1" result="PINK"></feFlood>        <feComposite in="PINK" in2="DILATED" operator="in" result="OUTLINE"></feComposite>        <feMerge>            <feMergeNode in="OUTLINE"></feMergeNode>            <feMergeNode in="SourceGraphic"></feMergeNode>        </feMerge>    </filter>    <filter id="hover" height="200%">        <feMorphology in="SourceAlpha" result="DILATED" operator="dilate" radius="2"></feMorphology>                <feFlood flood-color="#ff0000" flood-opacity="0.5" result="PINK"></feFlood>        <feComposite in="PINK" in2="DILATED" operator="in" result="OUTLINE"></feComposite>        <feMerge>            <feMergeNode in="OUTLINE"></feMergeNode>            <feMergeNode in="SourceGraphic"></feMergeNode>        </feMerge>            <feColorMatrix type="matrix" values="0   0   0   0   0                0   1   0   0   0                0   0   0   0   0                0   0   0   1   0 "></feColorMatrix>    </filter></defs></svg>