<?xml version="1.0" encoding="UTF-8"?>
<svg id="Calque_1" data-name="Calque 1" xmlns="http://www.w3.org/2000/svg" viewBox="0 0 390.51 82.42">
  <defs>
    <style>
      .cls-1 {
        fill: #fff;
        stroke-width: 0px;
      }
    </style>
  </defs>
  <g>
    <path class="cls-1" d="M120.89,37.45h-62.76v-8.2h62.76v8.2ZM82.95,13.47v55.73c0,.98.04,1.74.11,2.26.07.53.26.95.58,1.26.31.32.74.51,1.26.58.53.07,1.21.11,2.05.11h6.66v8.41h-4.14c-5.12,0-8.88-1.3-11.3-3.89-2.42-2.59-3.63-6.73-3.63-12.41V13.47h8.41Z"/>
    <path class="cls-1" d="M134.79,78.03v-36.17c0-.98-.04-1.74-.1-2.26-.07-.53-.25-.95-.53-1.26-.28-.32-.67-.51-1.16-.58-.49-.07-1.19-.11-2.1-.11h-6.8v-8.41h3.96c5.19,0,9.03,1.31,11.51,3.94,2.49,2.63,3.73,6.75,3.73,12.36v32.49h-8.52ZM96.86,73.62h66.63v8.2h-66.63v-8.2ZM133.63,13.47h10.31v10.2h-10.31v-10.2Z"/>
  </g>
  <path class="cls-1" d="M44.44,40.71c-.82-1.37-2-2.52-3.56-3.45-1.56-.93-3.42-1.67-5.57-2.23-2.15-.56-4.57-.83-7.24-.83s-5.16.17-7.24.5c-2.08.33-3.84.82-5.29,1.45-1.45.63-2.54,1.43-3.29,2.39-.74.97-1.11,2.12-1.11,3.45,0,2.45,1.13,4.23,3.4,5.35,2.26,1.11,5.09,1.93,8.46,2.45,3.38.52,7.03.95,10.97,1.28,3.93.33,7.59.97,10.97,1.89,3.38.93,6.2,2.38,8.46,4.34,2.26,1.97,3.4,4.77,3.4,8.41,0,2.9-.65,5.38-1.95,7.46-1.3,2.08-3.17,3.81-5.62,5.18-2.45,1.38-5.46,2.39-9.02,3.06-3.56.67-7.61,1-12.14,1s-8.78-.46-12.31-1.39c-3.53-.93-6.46-2.28-8.8-4.06-2.34-1.78-4.08-3.94-5.23-6.46-1.15-2.52-1.73-5.46-1.73-8.8h8.91c0,4.45,1.56,7.67,4.68,9.63,3.12,1.97,7.94,2.95,14.48,2.95s11.28-.56,14.7-1.67c3.41-1.11,5.12-3.34,5.12-6.68,0-2.15-1.13-3.71-3.4-4.68-2.27-.96-5.09-1.67-8.46-2.12-3.38-.45-7.04-.85-10.97-1.23-3.94-.37-7.59-1.06-10.97-2.06-3.38-1-6.2-2.52-8.46-4.57-2.27-2.04-3.4-4.92-3.4-8.63,0-2.67.57-5.05,1.73-7.13,1.15-2.08,2.82-3.81,5.01-5.18,2.19-1.37,4.88-2.43,8.07-3.17,3.19-.74,6.87-1.11,11.03-1.11,3.86,0,7.41.48,10.64,1.45,3.23.96,6.03,2.3,8.41,4.01,2.38,1.71,4.21,3.71,5.51,6.01,1.3,2.3,1.95,4.86,1.95,7.68l-8.91-.11c0-1.56-.41-3.02-1.23-4.4Z"/>
  <g>
    <path class="cls-1" d="M154.74,25.62h8.91l22.38,55.69h-8.46l-22.83-55.69ZM202.63,25.62h8.91l-22.83,55.69h-8.46l22.39-55.69Z"/>
    <path class="cls-1" d="M242.38,77.29V13.36c0-1.04-.04-1.84-.11-2.39-.07-.56-.26-1-.56-1.34-.3-.33-.71-.54-1.23-.61-.52-.07-1.26-.11-2.23-.11h-19.94V0h17.15c5.42,0,9.41,1.38,11.97,4.12,2.56,2.75,3.84,7.13,3.84,13.14v60.03h-8.91ZM220.67,72.61h52.35v8.69h-52.35v-8.69Z"/>
    <path class="cls-1" d="M318.56,76.29c-3.42,4.08-8.65,6.13-15.7,6.13-3.86,0-7.24-.69-10.14-2.06-2.89-1.37-5.29-3.3-7.18-5.79-1.89-2.49-3.32-5.44-4.29-8.85s-1.45-7.2-1.45-11.36v-28.73h9.8v27.17c0,3.42.24,6.48.72,9.19.48,2.71,1.35,4.98,2.62,6.79,1.26,1.82,2.93,3.17,5.01,4.06,2.08.89,4.64,1.34,7.68,1.34,2.15,0,4.23-.31,6.24-.95,2-.63,3.79-1.86,5.35-3.67,1.56-1.82,2.8-4.38,3.73-7.68.93-3.3,1.39-7.63,1.39-12.98l2,9.8c-.44,7.65-2.38,13.51-5.79,17.6ZM332.15,81.3h-9.8V25.62h9.8v55.69Z"/>
    <path class="cls-1" d="M390.51,60.25c-1.19,6.98-3.97,12.42-8.35,16.32-4.38,3.9-10.14,5.85-17.26,5.85-8.09,0-14.46-2.56-19.1-7.68-4.64-5.12-6.96-12.21-6.96-21.27s2.32-16.05,6.96-21.22c4.64-5.16,11.01-7.74,19.1-7.74,6.9,0,12.57,1.88,16.98,5.62,4.42,3.75,7.26,8.97,8.52,15.65h-8.91c-.89-4.45-2.73-7.8-5.51-10.02-2.78-2.23-6.48-3.34-11.08-3.34-5.72,0-10.02,1.78-12.92,5.35-2.9,3.56-4.34,8.8-4.34,15.7s1.45,12.23,4.34,15.76c2.89,3.53,7.2,5.29,12.92,5.29,4.82,0,8.61-1.19,11.36-3.56,2.75-2.38,4.57-5.94,5.46-10.69h8.8Z"/>
  </g>
</svg>