<?xml version="1.0" encoding="UTF-8"?>
<svg id="Calque_1" data-name="Calque 1" xmlns="http://www.w3.org/2000/svg" viewBox="0 0 106.7 68.35">
  <defs>
    <style>
      .cls-1 {
        fill: #fff;
        stroke-width: 0px;
      }
    </style>
  </defs>
  <path class="cls-1" d="M62.76,23.98H0v-8.2h62.76v8.2ZM24.81,0v55.73c0,.98.04,1.74.11,2.26.07.53.26.95.58,1.26.31.32.74.51,1.26.58.53.07,1.21.11,2.05.11h6.66v8.41h-4.14c-5.12,0-8.88-1.3-11.3-3.89-2.42-2.59-3.63-6.73-3.63-12.41V0h8.41Z"/>
  <path class="cls-1" d="M76.66,64.57V28.39c0-.98-.04-1.74-.1-2.26-.07-.53-.25-.95-.53-1.26-.28-.32-.67-.51-1.16-.58-.49-.07-1.19-.11-2.1-.11h-6.8v-8.41h3.96c5.19,0,9.03,1.31,11.51,3.94,2.49,2.63,3.73,6.75,3.73,12.36v32.49h-8.52ZM38.73,60.15h66.63v8.2H38.73v-8.2ZM75.5,0h10.31v10.2h-10.31V0Z"/>
</svg>